<svg width="136" height="34" viewBox="0 0 136 34" fill="none" xmlns="http://www.w3.org/2000/svg">
<path d="M127.633 21.5179C126.971 21.5268 126.318 21.3565 125.745 21.0252C125.179 20.6966 124.716 20.2166 124.408 19.6393C124.073 19.0082 123.905 18.3021 123.918 17.5878C123.905 16.8725 124.074 16.1656 124.408 15.5334C124.716 14.9568 125.18 14.4778 125.745 14.1503C126.318 13.819 126.971 13.6488 127.633 13.6576C128.294 13.6489 128.945 13.8191 129.517 14.1503C130.083 14.4778 130.546 14.9568 130.854 15.5334C131.19 16.1651 131.359 16.8724 131.344 17.5878C131.359 18.3023 131.19 19.0087 130.854 19.6393C130.546 20.2166 130.083 20.6966 129.517 21.0252C128.945 21.3564 128.294 21.5267 127.633 21.5179ZM127.633 24.7393C128.995 24.7604 130.341 24.4436 131.551 23.8173C132.678 23.2302 133.622 22.3464 134.283 21.2615C134.949 20.1533 135.292 18.8808 135.274 17.5878C135.292 16.2947 134.949 15.0223 134.283 13.914C133.623 12.8285 132.678 11.9445 131.551 11.3583C130.341 10.7319 128.995 10.4151 127.633 10.4362C126.269 10.4148 124.922 10.7316 123.711 11.3583C122.584 11.9445 121.639 12.8285 120.98 13.914C120.313 15.0223 119.97 16.2947 119.988 17.5878C119.97 18.8808 120.313 20.1533 120.98 21.2615C121.64 22.3464 122.585 23.2302 123.711 23.8173C124.922 24.444 126.269 24.7608 127.633 24.7393ZM113.678 21.0656C113.017 21.3681 112.299 21.5225 111.572 21.5179C110.867 21.5299 110.172 21.357 109.555 21.0166C108.975 20.6904 108.498 20.207 108.181 19.622C107.846 18.997 107.677 18.2966 107.691 17.5878C107.691 16.3949 108.051 15.4421 108.771 14.7295C109.149 14.3675 109.595 14.0859 110.085 13.9016C110.574 13.7174 111.096 13.6344 111.618 13.6576C112.253 13.6546 112.881 13.7902 113.458 14.0549C114.036 14.3197 114.548 14.7072 114.96 15.1905L117.435 12.9517C116.746 12.1334 115.869 11.493 114.88 11.0846C113.783 10.6375 112.607 10.417 111.422 10.4362C110.051 10.4123 108.696 10.7259 107.475 11.3496C106.344 11.925 105.397 12.8066 104.743 13.8939C104.079 15.0102 103.739 16.2892 103.761 17.5878C103.739 18.8864 104.079 20.1654 104.743 21.2817C105.393 22.3634 106.331 23.2433 107.452 23.823C108.653 24.4432 109.989 24.757 111.341 24.7364C112.38 24.7343 113.412 24.5819 114.407 24.284C115.378 24.0081 116.294 23.5697 117.118 22.9874V17.291H113.678V21.0656ZM97.1651 15.8071C97.1817 16.0845 97.1353 16.362 97.0295 16.619C96.9238 16.8759 96.7613 17.1057 96.5543 17.291C96.1489 17.6387 95.5467 17.8125 94.7476 17.8125H92.5866V13.7786H94.7476C95.5448 13.7786 96.147 13.9553 96.5543 14.3088C96.7605 14.4966 96.9223 14.728 97.028 14.9862C97.1336 15.2444 97.1805 15.5228 97.1651 15.8013M97.2026 24.4685H101.369L98.4012 20.1464C99.2182 19.7726 99.9111 19.1727 100.398 18.4176C100.872 17.6371 101.114 16.7375 101.095 15.8244C101.117 14.8707 100.857 13.9318 100.349 13.1246C99.8291 12.3401 99.0909 11.725 98.2254 11.3554C97.201 10.9215 96.0961 10.7104 94.9839 10.7359H88.7026V24.4915H92.5924V20.8351H94.7131L97.2026 24.4685ZM78.4248 24.7566C80.4667 24.7566 82.0553 24.1995 83.1905 23.0854C84.3258 21.9713 84.8934 20.3923 84.8934 18.3485V10.7244H81.0641V18.2303C81.0641 20.4317 80.1997 21.5324 78.4709 21.5324C76.7421 21.5324 75.8719 20.4317 75.8604 18.2303V10.7244H71.9648V18.3485C71.9648 20.3904 72.5314 21.9684 73.6648 23.0825C74.7981 24.1966 76.3867 24.7537 78.4305 24.7537M68.1556 24.4656V10.71H64.9544L60.2377 18.6481L55.4056 10.71H52.216V24.4656H55.8119V17.3717L59.33 23.1085H61.0588L64.5798 17.1959V24.4857L68.1556 24.4656ZM41.5982 21.4574V18.942H47.7095V16.0434H41.5982V13.7383H48.5365V10.733H37.7487V24.4886H48.79V21.4805L41.5982 21.4574Z" fill="white"/>
<path d="M17.2726 6.03242C16.6416 6.66339 15.7861 7.0182 14.8937 7.01896C14.0012 7.01896 13.1452 6.6644 12.514 6.03326C11.8829 5.40212 11.5283 4.5461 11.5283 3.65354C11.5283 2.76097 11.8829 1.90496 12.514 1.27382C13.1452 0.642677 14.0012 0.288116 14.8937 0.288116C15.7863 0.288116 16.6423 0.642677 17.2734 1.27382C17.9046 1.90496 18.2592 2.76097 18.2592 3.65354C18.2584 4.54587 17.9036 5.40144 17.2726 6.03242Z" fill="url(#paint0_linear_3136_5436)"/>
<path d="M24.3889 9.23451C24.0122 9.39065 23.6084 9.47101 23.2007 9.47101C22.3776 9.47101 21.5883 9.14406 21.0064 8.5621C20.4244 7.98013 20.0975 7.19081 20.0975 6.36779C20.0975 5.5445 20.4243 4.75488 21.0062 4.17246C21.5881 3.59004 22.3774 3.26246 23.2007 3.2617C24.0237 3.2617 24.813 3.58863 25.395 4.1706C25.9769 4.75256 26.3039 5.54188 26.3039 6.3649C26.3043 6.77267 26.2243 7.17651 26.0685 7.55334C25.9127 7.93017 25.6842 8.27261 25.396 8.56108C25.1078 8.84954 24.7656 9.07838 24.3889 9.23451Z" fill="url(#paint1_linear_3136_5436)"/>
<path d="M13.4156 30.3235C13.8068 29.9323 14.3374 29.7125 14.8906 29.7125C15.4442 29.7125 15.9751 29.9322 16.3668 30.3233C16.7585 30.7144 16.9791 31.245 16.9799 31.7985C16.9799 32.3517 16.7602 32.8823 16.369 33.2735C15.9778 33.6647 15.4472 33.8845 14.894 33.8845C14.6198 33.8849 14.3481 33.8313 14.0947 33.7267C13.8412 33.622 13.6109 33.4684 13.4168 33.2747C13.2227 33.0809 13.0688 32.8508 12.9638 32.5975C12.8587 32.3442 12.8047 32.0727 12.8047 31.7985C12.8047 31.2453 13.0244 30.7147 13.4156 30.3235Z" fill="url(#paint2_linear_3136_5436)"/>
<path d="M25.3934 13.2715C25.3934 14.0265 25.6933 14.7506 26.2272 15.2845C26.7611 15.8184 27.4852 16.1183 28.2402 16.1183C28.9949 16.1175 29.7186 15.8174 30.2523 15.2837C30.786 14.7499 31.0862 14.0263 31.087 13.2715C31.0862 12.5167 30.786 11.7931 30.2523 11.2594C29.7186 10.7257 28.9949 10.4255 28.2402 10.4247C27.4852 10.4247 26.7611 10.7247 26.2272 11.2585C25.6933 11.7924 25.3934 12.5165 25.3934 13.2715Z" fill="url(#paint3_linear_3136_5436)"/>
<path d="M26.4065 20.3355C26.8928 19.8491 27.5524 19.5759 28.2402 19.5759C28.9279 19.5759 29.5875 19.8491 30.0739 20.3355C30.5602 20.8218 30.8334 21.4814 30.8334 22.1692C30.8334 22.8569 30.5602 23.5165 30.0739 24.0028C29.5875 24.4892 28.9279 24.7624 28.2402 24.7624C27.5524 24.7624 26.8928 24.4892 26.4065 24.0028C25.9202 23.5165 25.6469 22.8569 25.6469 22.1692C25.6469 21.4814 25.9202 20.8218 26.4065 20.3355Z" fill="url(#paint4_linear_3136_5436)"/>
<path d="M23.1978 26.739C22.8922 26.739 22.5896 26.7992 22.3073 26.9163C22.025 27.0333 21.7685 27.2048 21.5526 27.4211C21.3366 27.6373 21.1654 27.894 21.0487 28.1764C20.932 28.4589 20.8721 28.7615 20.8725 29.0671C20.8725 29.3727 20.9328 29.6753 21.0498 29.9576C21.1668 30.2399 21.3384 30.4964 21.5546 30.7123C21.7708 30.9283 22.0275 31.0995 22.3099 31.2162C22.5924 31.3329 22.8951 31.3928 23.2007 31.3924C23.8174 31.3924 24.4088 31.1474 24.8449 30.7113C25.2809 30.2753 25.5259 29.6838 25.5259 29.0671C25.5259 28.4497 25.2806 27.8575 24.844 27.4209C24.4074 26.9843 23.8152 26.739 23.1978 26.739Z" fill="url(#paint5_linear_3136_5436)"/>
<path d="M5.3093 27.7896C5.6481 27.4508 6.10763 27.2605 6.58677 27.2605C7.06618 27.2605 7.52599 27.4507 7.86525 27.7895C8.20452 28.1282 8.39549 28.5877 8.39626 29.0671C8.39626 29.5462 8.20592 30.0058 7.86712 30.3446C7.52831 30.6834 7.0688 30.8737 6.58966 30.8737C6.35217 30.8741 6.11693 30.8276 5.89741 30.737C5.67789 30.6464 5.47838 30.5134 5.31032 30.3456C5.14225 30.1778 5.00892 29.9785 4.91795 29.7591C4.82698 29.5398 4.78016 29.3046 4.78016 29.0671C4.78016 28.588 4.97049 28.1284 5.3093 27.7896Z" fill="url(#paint6_linear_3136_5436)"/>
<path d="M1.54729 20.6161C1.34399 20.6157 1.14261 20.6555 0.954715 20.7331C0.766819 20.8107 0.596097 20.9247 0.452342 21.0684C0.308588 21.2122 0.194629 21.3829 0.117005 21.5708C0.039381 21.7587 -0.000376952 21.9601 2.69342e-06 22.1634C-0.000376952 22.3667 0.039381 22.5681 0.117005 22.756C0.194629 22.9439 0.308588 23.1146 0.452342 23.2583C0.596097 23.4021 0.766819 23.516 0.954715 23.5937C1.14261 23.6713 1.34399 23.7111 1.54729 23.7107C1.95742 23.7099 2.35052 23.5467 2.64053 23.2566C2.93054 22.9666 3.09381 22.5735 3.09458 22.1634C3.09496 21.9601 3.05518 21.7587 2.97756 21.5708C2.89993 21.3829 2.78597 21.2122 2.64222 21.0684C2.49846 20.9247 2.32774 20.8107 2.13985 20.7331C1.95195 20.6555 1.75059 20.6157 1.54729 20.6161Z" fill="url(#paint7_linear_3136_5436)"/>
<path d="M2.45821 14.1833C2.21675 14.4253 1.88916 14.5616 1.54731 14.5623C1.20595 14.5616 0.87878 14.4257 0.637405 14.1843C0.396029 13.9429 0.260093 13.6157 0.259332 13.2744C0.258953 13.105 0.291993 12.9372 0.35655 12.7806C0.421107 12.624 0.515922 12.4817 0.635558 12.3618C0.755195 12.2419 0.897294 12.1468 1.05375 12.0819C1.2102 12.017 1.37793 11.9835 1.54731 11.9835C1.8889 11.9835 2.2165 12.1192 2.45804 12.3608C2.69958 12.6023 2.83526 12.9299 2.83526 13.2715C2.83527 13.6134 2.69967 13.9413 2.45821 14.1833Z" fill="url(#paint8_linear_3136_5436)"/>
<path d="M6.58679 7.39932C6.85961 7.39932 7.12124 7.29094 7.31415 7.09803C7.50706 6.90512 7.61544 6.64349 7.61544 6.37067C7.61544 6.23559 7.58882 6.10184 7.53713 5.97704C7.48543 5.85224 7.40967 5.73883 7.31415 5.64332C7.21863 5.5478 7.10523 5.47203 6.98043 5.42034C6.85563 5.36864 6.72188 5.34203 6.58679 5.34203C6.45171 5.34203 6.31794 5.36864 6.19314 5.42034C6.06834 5.47203 5.95494 5.5478 5.85942 5.64332C5.7639 5.73883 5.68814 5.85224 5.63644 5.97704C5.58475 6.10184 5.55815 6.23559 5.55815 6.37067C5.55815 6.64349 5.66651 6.90512 5.85942 7.09803C6.05233 7.29094 6.31398 7.39932 6.58679 7.39932Z" fill="url(#paint9_linear_3136_5436)"/>
<path d="M17.51 12.2314C17.51 12.6899 17.6922 13.1296 18.0164 13.4538C18.3406 13.778 18.7803 13.9602 19.2388 13.9602C19.6973 13.9602 20.1371 13.778 20.4613 13.4538C20.7855 13.1296 20.9676 12.6899 20.9676 12.2314C20.9676 11.7728 20.7855 11.3331 20.4613 11.0089C20.1371 10.6847 19.6973 10.5025 19.2388 10.5025C18.7803 10.5025 18.3406 10.6847 18.0164 11.0089C17.6922 11.3331 17.51 11.7728 17.51 12.2314Z" fill="url(#paint10_linear_3136_5436)"/>
<path d="M20.9106 14.9433C21.2062 14.6477 21.6071 14.4817 22.0251 14.4817C22.2323 14.4813 22.4376 14.5218 22.6291 14.6008C22.8207 14.6799 22.9948 14.7959 23.1414 14.9423C23.2881 15.0887 23.4044 15.2626 23.4838 15.454C23.5632 15.6454 23.6041 15.8506 23.6041 16.0578C23.6041 16.476 23.4381 16.8772 23.1426 17.1733C22.8471 17.4693 22.4462 17.636 22.028 17.6368C21.6092 17.6368 21.2076 17.4704 20.9114 17.1743C20.6153 16.8782 20.449 16.4765 20.449 16.0578C20.449 15.6398 20.615 15.2389 20.9106 14.9433Z" fill="url(#paint11_linear_3136_5436)"/>
<path d="M22.0251 22.4198C22.4072 22.4198 22.7736 22.268 23.0438 21.9979C23.314 21.7277 23.4657 21.3612 23.4657 20.9792C23.4657 20.5971 23.314 20.2306 23.0438 19.9604C22.7736 19.6903 22.4072 19.5385 22.0251 19.5385C21.643 19.5385 21.2765 19.6903 21.0064 19.9604C20.7362 20.2306 20.5844 20.5971 20.5844 20.9792C20.5844 21.3612 20.7362 21.7277 21.0064 21.9979C21.2765 22.268 21.643 22.4198 22.0251 22.4198Z" fill="url(#paint12_linear_3136_5436)"/>
<path d="M18.3184 23.912C18.5604 23.6705 18.8883 23.5349 19.2302 23.5349C19.5718 23.5349 19.8994 23.6706 20.1409 23.9121C20.3825 24.1537 20.5181 24.4813 20.5181 24.8229C20.5181 25.1647 20.3825 25.4926 20.1411 25.7346C19.8996 25.9766 19.572 26.113 19.2302 26.1137C18.8881 26.113 18.5602 25.9767 18.3183 25.7348C18.0763 25.4929 17.9401 25.165 17.9393 24.8229C17.9401 24.481 18.0764 24.1534 18.3184 23.912Z" fill="url(#paint13_linear_3136_5436)"/>
<path d="M14.6286 27.4622C14.9343 27.4622 15.2275 27.3408 15.4436 27.1246C15.6598 26.9085 15.7812 26.6153 15.7812 26.3097C15.7812 26.004 15.6598 25.7108 15.4436 25.4947C15.2275 25.2785 14.9343 25.1571 14.6286 25.1571C14.323 25.1571 14.0298 25.2785 13.8137 25.4947C13.5975 25.7108 13.4761 26.004 13.4761 26.3097C13.4761 26.6153 13.5975 26.9085 13.8137 27.1246C14.0298 27.3408 14.323 27.4622 14.6286 27.4622Z" fill="url(#paint14_linear_3136_5436)"/>
<path d="M9.64074 23.8983C9.76238 23.8483 9.89271 23.8227 10.0242 23.8231C10.1558 23.8227 10.2861 23.8483 10.4078 23.8983C10.5294 23.9484 10.64 24.022 10.7331 24.1149C10.8263 24.2078 10.9001 24.3181 10.9506 24.4396C11.001 24.5611 11.027 24.6913 11.027 24.8229C11.027 25.0888 10.9213 25.3439 10.7333 25.5319C10.5452 25.72 10.2902 25.8256 10.0242 25.8256C9.75831 25.8256 9.50326 25.72 9.31522 25.5319C9.12717 25.3439 9.02154 25.0888 9.02154 24.8229C9.02154 24.6913 9.04749 24.5611 9.09792 24.4396C9.14834 24.3181 9.22224 24.2078 9.31539 24.1149C9.40854 24.022 9.5191 23.9484 9.64074 23.8983Z" fill="url(#paint15_linear_3136_5436)"/>
<path d="M7.2322 20.1291C7.00294 20.1291 6.78307 20.2202 6.62096 20.3823C6.45886 20.5444 6.36779 20.7643 6.36779 20.9935C6.36779 21.2228 6.45886 21.4427 6.62096 21.6048C6.78307 21.7669 7.00294 21.8579 7.2322 21.8579C7.46145 21.8579 7.68132 21.7669 7.84343 21.6048C8.00554 21.4427 8.0966 21.2228 8.0966 20.9935C8.0966 20.7643 8.00554 20.5444 7.84343 20.3823C7.68132 20.2202 7.46145 20.1291 7.2322 20.1291Z" fill="url(#paint16_linear_3136_5436)"/>
<path d="M6.7259 16.562C6.59251 16.4281 6.51762 16.2468 6.51762 16.0578C6.51762 15.869 6.59261 15.688 6.72608 15.5545C6.85955 15.4211 7.04056 15.3461 7.22931 15.3461C7.41833 15.3461 7.59966 15.421 7.73358 15.5544C7.86751 15.6877 7.94312 15.8688 7.94388 16.0578C7.94388 16.2473 7.8686 16.4291 7.73459 16.5631C7.60058 16.6971 7.41883 16.7724 7.22931 16.7724C7.04029 16.7716 6.85929 16.696 6.7259 16.562Z" fill="url(#paint17_linear_3136_5436)"/>
<path d="M10.0242 12.8019C10.1771 12.8019 10.3237 12.7411 10.4317 12.6331C10.5398 12.525 10.6005 12.3784 10.6005 12.2256C10.6005 12.0728 10.5398 11.9262 10.4317 11.8181C10.3237 11.71 10.1771 11.6493 10.0242 11.6493C9.87141 11.6493 9.72482 11.71 9.61675 11.8181C9.50868 11.9262 9.44798 12.0728 9.44798 12.2256C9.44798 12.3784 9.50868 12.525 9.61675 12.6331C9.72482 12.7411 9.87141 12.8019 10.0242 12.8019Z" fill="url(#paint18_linear_3136_5436)"/>
<path d="M15.9411 9.40906C16.2907 9.75867 16.4871 10.2328 16.4871 10.7273C16.4871 11.2217 16.2907 11.6959 15.9411 12.0455C15.5915 12.3951 15.1173 12.5915 14.6229 12.5915C14.378 12.5919 14.1354 12.5439 13.909 12.4504C13.6827 12.3568 13.477 12.2195 13.3038 12.0463C13.1306 11.8731 12.9933 11.6675 12.8998 11.4411C12.8062 11.2148 12.7583 10.9722 12.7587 10.7273C12.7583 10.4823 12.8062 10.2398 12.8998 10.0134C12.9933 9.78707 13.1306 9.5814 13.3038 9.40822C13.477 9.23503 13.6827 9.09772 13.909 9.00417C14.1354 8.91062 14.378 8.86266 14.6229 8.86304C15.1173 8.86304 15.5915 9.05945 15.9411 9.40906Z" fill="url(#paint19_linear_3136_5436)"/>
<path d="M16.6225 16.539C16.8284 16.5382 17.0255 16.4559 17.1708 16.3101C17.3161 16.1643 17.3976 15.9668 17.3976 15.761C17.3968 15.5557 17.315 15.359 17.1698 15.2138C17.0246 15.0686 16.8279 14.9867 16.6225 14.9859C16.4167 14.9859 16.2193 15.0675 16.0734 15.2127C15.9276 15.358 15.8453 15.5552 15.8446 15.761C15.8446 15.9673 15.9265 16.1652 16.0724 16.3111C16.2183 16.457 16.4162 16.539 16.6225 16.539Z" fill="url(#paint20_linear_3136_5436)"/>
<path d="M18.1538 18.1434C18.0676 18.1795 17.9752 18.1983 17.8817 18.1986C17.788 18.1986 17.6952 18.1801 17.6087 18.1442C17.5221 18.1082 17.4436 18.0556 17.3774 17.9892C17.3113 17.9228 17.2589 17.844 17.2233 17.7573C17.1877 17.6706 17.1696 17.5778 17.17 17.4841C17.17 17.2953 17.245 17.1143 17.3784 16.9808C17.5119 16.8473 17.6929 16.7724 17.8817 16.7724C18.07 16.7731 18.2502 16.8484 18.3831 16.9818C18.5159 17.1152 18.5905 17.2958 18.5905 17.4841C18.5909 17.5775 18.5729 17.6701 18.5374 17.7566C18.502 17.8431 18.4499 17.9218 18.3841 17.9882C18.3183 18.0545 18.24 18.1072 18.1538 18.1434Z" fill="url(#paint21_linear_3136_5436)"/>
<path d="M18.5271 19.7085C18.5271 19.5373 18.4591 19.3731 18.3381 19.2521C18.217 19.1311 18.0529 19.063 17.8817 19.063C17.7967 19.0627 17.7125 19.0791 17.6338 19.1114C17.5552 19.1436 17.4837 19.1911 17.4235 19.2511C17.3632 19.311 17.3154 19.3823 17.2828 19.4608C17.2502 19.5393 17.2334 19.6235 17.2334 19.7085C17.2334 19.7935 17.2502 19.8776 17.2828 19.9561C17.3154 20.0346 17.3632 20.1059 17.4235 20.1659C17.4837 20.2259 17.5552 20.2733 17.6338 20.3056C17.7125 20.3379 17.7967 20.3543 17.8817 20.3539C18.0529 20.3539 18.217 20.2859 18.3381 20.1649C18.4591 20.0438 18.5271 19.8796 18.5271 19.7085Z" fill="url(#paint22_linear_3136_5436)"/>
<path d="M16.215 21.0211C16.3231 20.9131 16.4697 20.8524 16.6225 20.8524C16.7754 20.8524 16.9219 20.9131 17.03 21.0211C17.1381 21.1292 17.1988 21.2758 17.1988 21.4286C17.1988 21.5815 17.1381 21.728 17.03 21.8361C16.9219 21.9442 16.7754 22.0049 16.6225 22.0049C16.4697 22.0049 16.3231 21.9442 16.215 21.8361C16.107 21.728 16.0463 21.5815 16.0463 21.4286C16.0463 21.2758 16.107 21.1292 16.215 21.0211Z" fill="url(#paint23_linear_3136_5436)"/>
<path d="M14.0293 22.1115C14.0293 22.2483 14.0836 22.3795 14.1804 22.4762C14.2771 22.573 14.4083 22.6273 14.5451 22.6273C14.6821 22.6273 14.8136 22.573 14.9108 22.4764C15.008 22.3798 15.063 22.2486 15.0637 22.1115C15.063 21.9745 15.008 21.8433 14.9108 21.7466C14.8136 21.65 14.6821 21.5958 14.5451 21.5958C14.4083 21.5958 14.2771 21.6501 14.1804 21.7468C14.0836 21.8435 14.0293 21.9747 14.0293 22.1115Z" fill="url(#paint24_linear_3136_5436)"/>
<path d="M12.2974 21.0165C12.3523 20.9937 12.4111 20.982 12.4705 20.982C12.5299 20.982 12.5887 20.9937 12.6436 21.0165C12.6985 21.0392 12.7484 21.0725 12.7904 21.1145C12.8324 21.1565 12.8657 21.2064 12.8884 21.2613C12.9112 21.3162 12.9229 21.375 12.9229 21.4344C12.9229 21.4938 12.9112 21.5526 12.8884 21.6075C12.8657 21.6624 12.8324 21.7123 12.7904 21.7543C12.7484 21.7963 12.6985 21.8296 12.6436 21.8523C12.5887 21.8751 12.5299 21.8868 12.4705 21.8868C12.3508 21.886 12.2361 21.8381 12.1515 21.7534C12.0668 21.6688 12.0189 21.5542 12.0181 21.4344C12.0181 21.375 12.0298 21.3162 12.0526 21.2613C12.0753 21.2064 12.1086 21.1565 12.1506 21.1145C12.1926 21.0725 12.2425 21.0392 12.2974 21.0165Z" fill="url(#paint25_linear_3136_5436)"/>
<path d="M11.2113 19.3224C11.1089 19.3224 11.0107 19.363 10.9383 19.4355C10.8659 19.5079 10.8252 19.6061 10.8252 19.7085C10.8252 19.7592 10.8352 19.8094 10.8546 19.8562C10.874 19.9031 10.9025 19.9456 10.9383 19.9815C10.9742 20.0173 11.0167 20.0458 11.0636 20.0652C11.1104 20.0846 11.1606 20.0946 11.2113 20.0946C11.2621 20.0946 11.3123 20.0846 11.3591 20.0652C11.406 20.0458 11.4485 20.0173 11.4844 19.9815C11.5202 19.9456 11.5486 19.9031 11.5681 19.8562C11.5875 19.8094 11.5975 19.7592 11.5975 19.7085C11.5975 19.6061 11.5568 19.5079 11.4844 19.4355C11.412 19.363 11.3137 19.3224 11.2113 19.3224Z" fill="url(#paint26_linear_3136_5436)"/>
<path d="M11.4395 17.7151C11.379 17.7757 11.297 17.8097 11.2114 17.8097C11.1258 17.8097 11.0437 17.7757 10.9832 17.7151C10.9226 17.6546 10.8887 17.5725 10.8887 17.4869C10.8887 17.4014 10.9226 17.3193 10.9832 17.2587C11.0437 17.1982 11.1258 17.1642 11.2114 17.1642C11.297 17.1642 11.379 17.1982 11.4395 17.2587C11.5001 17.3193 11.5341 17.4014 11.5341 17.4869C11.5341 17.5725 11.5001 17.6546 11.4395 17.7151Z" fill="url(#paint27_linear_3136_5436)"/>
<path d="M12.2141 15.7553C12.2137 15.7892 12.22 15.8228 12.2327 15.8543C12.2455 15.8857 12.2643 15.9143 12.2881 15.9384C12.312 15.9626 12.3404 15.9817 12.3717 15.9948C12.403 16.0078 12.4366 16.0146 12.4705 16.0146C12.5044 16.0146 12.538 16.0078 12.5693 15.9948C12.6006 15.9817 12.629 15.9626 12.6529 15.9384C12.6767 15.9143 12.6955 15.8857 12.7082 15.8543C12.721 15.8228 12.7273 15.7892 12.7269 15.7553C12.7269 15.6872 12.6999 15.622 12.6518 15.5739C12.6037 15.5258 12.5385 15.4988 12.4705 15.4988C12.4025 15.4988 12.3373 15.5258 12.2892 15.5739C12.2411 15.622 12.2141 15.6872 12.2141 15.7553Z" fill="url(#paint28_linear_3136_5436)"/>
<path d="M15.14 14.489C15.2978 14.6467 15.3864 14.8607 15.3864 15.0839C15.3864 15.307 15.2978 15.521 15.14 15.6788C14.9822 15.8366 14.7682 15.9253 14.5451 15.9253C14.322 15.9253 14.108 15.8366 13.9502 15.6788C13.7924 15.521 13.7037 15.307 13.7037 15.0839C13.7037 14.8607 13.7924 14.6467 13.9502 14.489C14.108 14.3312 14.322 14.2425 14.5451 14.2425C14.7682 14.2425 14.9822 14.3312 15.14 14.489Z" fill="url(#paint29_linear_3136_5436)"/>
<defs>
<linearGradient id="paint0_linear_3136_5436" x1="31.087" y1="0.288114" x2="-4.66844e-06" y2="33.8845" gradientUnits="userSpaceOnUse">
<stop stop-color="#FF1055"/>
<stop offset="1" stop-color="#FFD363"/>
</linearGradient>
<linearGradient id="paint1_linear_3136_5436" x1="31.087" y1="0.288114" x2="-4.66844e-06" y2="33.8845" gradientUnits="userSpaceOnUse">
<stop stop-color="#FF1055"/>
<stop offset="1" stop-color="#FFD363"/>
</linearGradient>
<linearGradient id="paint2_linear_3136_5436" x1="31.087" y1="0.288114" x2="-4.66844e-06" y2="33.8845" gradientUnits="userSpaceOnUse">
<stop stop-color="#FF1055"/>
<stop offset="1" stop-color="#FFD363"/>
</linearGradient>
<linearGradient id="paint3_linear_3136_5436" x1="31.087" y1="0.288114" x2="-4.66844e-06" y2="33.8845" gradientUnits="userSpaceOnUse">
<stop stop-color="#FF1055"/>
<stop offset="1" stop-color="#FFD363"/>
</linearGradient>
<linearGradient id="paint4_linear_3136_5436" x1="31.087" y1="0.288114" x2="-4.66844e-06" y2="33.8845" gradientUnits="userSpaceOnUse">
<stop stop-color="#FF1055"/>
<stop offset="1" stop-color="#FFD363"/>
</linearGradient>
<linearGradient id="paint5_linear_3136_5436" x1="31.087" y1="0.288114" x2="-4.66844e-06" y2="33.8845" gradientUnits="userSpaceOnUse">
<stop stop-color="#FF1055"/>
<stop offset="1" stop-color="#FFD363"/>
</linearGradient>
<linearGradient id="paint6_linear_3136_5436" x1="31.087" y1="0.288114" x2="-4.66844e-06" y2="33.8845" gradientUnits="userSpaceOnUse">
<stop stop-color="#FF1055"/>
<stop offset="1" stop-color="#FFD363"/>
</linearGradient>
<linearGradient id="paint7_linear_3136_5436" x1="31.087" y1="0.288114" x2="-4.66844e-06" y2="33.8845" gradientUnits="userSpaceOnUse">
<stop stop-color="#FF1055"/>
<stop offset="1" stop-color="#FFD363"/>
</linearGradient>
<linearGradient id="paint8_linear_3136_5436" x1="31.087" y1="0.288114" x2="-4.66844e-06" y2="33.8845" gradientUnits="userSpaceOnUse">
<stop stop-color="#FF1055"/>
<stop offset="1" stop-color="#FFD363"/>
</linearGradient>
<linearGradient id="paint9_linear_3136_5436" x1="31.087" y1="0.288114" x2="-4.66844e-06" y2="33.8845" gradientUnits="userSpaceOnUse">
<stop stop-color="#FF1055"/>
<stop offset="1" stop-color="#FFD363"/>
</linearGradient>
<linearGradient id="paint10_linear_3136_5436" x1="31.087" y1="0.288114" x2="-4.66844e-06" y2="33.8845" gradientUnits="userSpaceOnUse">
<stop stop-color="#FF1055"/>
<stop offset="1" stop-color="#FFD363"/>
</linearGradient>
<linearGradient id="paint11_linear_3136_5436" x1="31.087" y1="0.288114" x2="-4.66844e-06" y2="33.8845" gradientUnits="userSpaceOnUse">
<stop stop-color="#FF1055"/>
<stop offset="1" stop-color="#FFD363"/>
</linearGradient>
<linearGradient id="paint12_linear_3136_5436" x1="31.087" y1="0.288114" x2="-4.66844e-06" y2="33.8845" gradientUnits="userSpaceOnUse">
<stop stop-color="#FF1055"/>
<stop offset="1" stop-color="#FFD363"/>
</linearGradient>
<linearGradient id="paint13_linear_3136_5436" x1="31.087" y1="0.288114" x2="-4.66844e-06" y2="33.8845" gradientUnits="userSpaceOnUse">
<stop stop-color="#FF1055"/>
<stop offset="1" stop-color="#FFD363"/>
</linearGradient>
<linearGradient id="paint14_linear_3136_5436" x1="31.087" y1="0.288114" x2="-4.66844e-06" y2="33.8845" gradientUnits="userSpaceOnUse">
<stop stop-color="#FF1055"/>
<stop offset="1" stop-color="#FFD363"/>
</linearGradient>
<linearGradient id="paint15_linear_3136_5436" x1="31.087" y1="0.288114" x2="-4.66844e-06" y2="33.8845" gradientUnits="userSpaceOnUse">
<stop stop-color="#FF1055"/>
<stop offset="1" stop-color="#FFD363"/>
</linearGradient>
<linearGradient id="paint16_linear_3136_5436" x1="31.087" y1="0.288114" x2="-4.66844e-06" y2="33.8845" gradientUnits="userSpaceOnUse">
<stop stop-color="#FF1055"/>
<stop offset="1" stop-color="#FFD363"/>
</linearGradient>
<linearGradient id="paint17_linear_3136_5436" x1="31.087" y1="0.288114" x2="-4.66844e-06" y2="33.8845" gradientUnits="userSpaceOnUse">
<stop stop-color="#FF1055"/>
<stop offset="1" stop-color="#FFD363"/>
</linearGradient>
<linearGradient id="paint18_linear_3136_5436" x1="31.087" y1="0.288114" x2="-4.66844e-06" y2="33.8845" gradientUnits="userSpaceOnUse">
<stop stop-color="#FF1055"/>
<stop offset="1" stop-color="#FFD363"/>
</linearGradient>
<linearGradient id="paint19_linear_3136_5436" x1="31.087" y1="0.288114" x2="-4.66844e-06" y2="33.8845" gradientUnits="userSpaceOnUse">
<stop stop-color="#FF1055"/>
<stop offset="1" stop-color="#FFD363"/>
</linearGradient>
<linearGradient id="paint20_linear_3136_5436" x1="31.087" y1="0.288114" x2="-4.66844e-06" y2="33.8845" gradientUnits="userSpaceOnUse">
<stop stop-color="#FF1055"/>
<stop offset="1" stop-color="#FFD363"/>
</linearGradient>
<linearGradient id="paint21_linear_3136_5436" x1="31.087" y1="0.288114" x2="-4.66844e-06" y2="33.8845" gradientUnits="userSpaceOnUse">
<stop stop-color="#FF1055"/>
<stop offset="1" stop-color="#FFD363"/>
</linearGradient>
<linearGradient id="paint22_linear_3136_5436" x1="31.087" y1="0.288114" x2="-4.66844e-06" y2="33.8845" gradientUnits="userSpaceOnUse">
<stop stop-color="#FF1055"/>
<stop offset="1" stop-color="#FFD363"/>
</linearGradient>
<linearGradient id="paint23_linear_3136_5436" x1="31.087" y1="0.288114" x2="-4.66844e-06" y2="33.8845" gradientUnits="userSpaceOnUse">
<stop stop-color="#FF1055"/>
<stop offset="1" stop-color="#FFD363"/>
</linearGradient>
<linearGradient id="paint24_linear_3136_5436" x1="31.087" y1="0.288114" x2="-4.66844e-06" y2="33.8845" gradientUnits="userSpaceOnUse">
<stop stop-color="#FF1055"/>
<stop offset="1" stop-color="#FFD363"/>
</linearGradient>
<linearGradient id="paint25_linear_3136_5436" x1="31.087" y1="0.288114" x2="-4.66844e-06" y2="33.8845" gradientUnits="userSpaceOnUse">
<stop stop-color="#FF1055"/>
<stop offset="1" stop-color="#FFD363"/>
</linearGradient>
<linearGradient id="paint26_linear_3136_5436" x1="31.087" y1="0.288114" x2="-4.66844e-06" y2="33.8845" gradientUnits="userSpaceOnUse">
<stop stop-color="#FF1055"/>
<stop offset="1" stop-color="#FFD363"/>
</linearGradient>
<linearGradient id="paint27_linear_3136_5436" x1="31.087" y1="0.288114" x2="-4.66844e-06" y2="33.8845" gradientUnits="userSpaceOnUse">
<stop stop-color="#FF1055"/>
<stop offset="1" stop-color="#FFD363"/>
</linearGradient>
<linearGradient id="paint28_linear_3136_5436" x1="31.087" y1="0.288114" x2="-4.66844e-06" y2="33.8845" gradientUnits="userSpaceOnUse">
<stop stop-color="#FF1055"/>
<stop offset="1" stop-color="#FFD363"/>
</linearGradient>
<linearGradient id="paint29_linear_3136_5436" x1="31.087" y1="0.288114" x2="-4.66844e-06" y2="33.8845" gradientUnits="userSpaceOnUse">
<stop stop-color="#FF1055"/>
<stop offset="1" stop-color="#FFD363"/>
</linearGradient>
</defs>
</svg>
