<svg width="32" height="32" viewBox="0 0 32 32" fill="none" xmlns="http://www.w3.org/2000/svg">
<path d="M30.1054 19.5798C28.8266 18.3039 27.1215 17.666 25.4401 17.6896C24.4455 17.6896 23.5456 17.1698 23.0483 16.3193L21.6274 13.8856C21.1301 13.0351 21.1301 11.9718 21.6274 11.1212C23.0956 8.64037 22.7641 5.3798 20.609 3.22971C18.0751 0.701587 13.9545 0.701587 11.3968 3.22971C9.2418 5.3798 8.91027 8.61675 10.3785 11.1212C10.8759 11.9718 10.8759 13.0351 10.3785 13.8856L8.95763 16.3193C8.46032 17.1698 7.56041 17.7133 6.56578 17.6896C4.88438 17.666 3.17927 18.3039 1.90046 19.5798C-0.633487 22.1079 -0.633487 26.2191 1.90046 28.7709C4.43441 31.299 8.55504 31.299 11.1127 28.7709C11.5389 28.3456 11.8942 27.873 12.1783 27.3768C12.6757 26.5263 13.5756 25.9828 14.5702 25.9828H17.3883C18.383 25.9828 19.3065 26.5026 19.7802 27.3768C20.0644 27.873 20.4196 28.3456 20.8459 28.7709C23.3798 31.299 27.5004 31.299 30.0581 28.7709C32.6394 26.2191 32.6394 22.1079 30.1054 19.5798ZM12.1547 18.0913L13.5756 15.6577C14.0729 14.7835 14.9965 14.2873 16.0148 14.2873C16.0385 14.2873 16.0622 14.2873 16.0858 14.2873C17.0805 14.2873 18.0041 14.8071 18.5251 15.6577L19.946 18.0913C20.4433 18.9419 20.4433 20.0051 19.9223 20.8557C19.8986 20.8793 19.8986 20.903 19.8986 20.9266C19.4013 21.8008 18.4777 22.3442 17.4831 22.3442H14.6649C13.6703 22.3442 12.7467 21.8008 12.2494 20.9266C12.2494 20.903 12.2257 20.8793 12.2257 20.8557C11.6573 20.0287 11.6574 18.9655 12.1547 18.0913Z" fill="white"/>
</svg>
