<svg width="64" height="64" viewBox="0 0 64 64" fill="none" xmlns="http://www.w3.org/2000/svg">
<rect width="64" height="64" rx="12" fill="url(#paint0_linear_248_2485)"/>
<path d="M46.1054 35.5798C44.8266 34.3039 43.1215 33.666 41.4401 33.6896C40.4455 33.6896 39.5456 33.1698 39.0483 32.3193L37.6274 29.8856C37.1301 29.0351 37.1301 27.9718 37.6274 27.1212C39.0956 24.6404 38.7641 21.3798 36.609 19.2297C34.0751 16.7016 29.9545 16.7016 27.3968 19.2297C25.2418 21.3798 24.9103 24.6167 26.3785 27.1212C26.8759 27.9718 26.8759 29.0351 26.3785 29.8856L24.9576 32.3193C24.4603 33.1698 23.5604 33.7133 22.5658 33.6896C20.8844 33.666 19.1793 34.3039 17.9005 35.5798C15.3665 38.1079 15.3665 42.2191 17.9005 44.7709C20.4344 47.299 24.555 47.299 27.1127 44.7709C27.5389 44.3456 27.8942 43.873 28.1783 43.3768C28.6757 42.5263 29.5756 41.9828 30.5702 41.9828H33.3883C34.383 41.9828 35.3065 42.5026 35.7802 43.3768C36.0644 43.873 36.4196 44.3456 36.8459 44.7709C39.3798 47.299 43.5004 47.299 46.0581 44.7709C48.6394 42.2191 48.6394 38.1079 46.1054 35.5798ZM28.1547 34.0913L29.5756 31.6577C30.0729 30.7835 30.9965 30.2873 32.0148 30.2873C32.0385 30.2873 32.0622 30.2873 32.0858 30.2873C33.0805 30.2873 34.0041 30.8071 34.5251 31.6577L35.946 34.0913C36.4433 34.9419 36.4433 36.0051 35.9223 36.8557C35.8986 36.8793 35.8986 36.903 35.8986 36.9266C35.4013 37.8008 34.4777 38.3442 33.4831 38.3442H30.6649C29.6703 38.3442 28.7467 37.8008 28.2494 36.9266C28.2494 36.903 28.2257 36.8793 28.2257 36.8557C27.6573 36.0287 27.6574 34.9655 28.1547 34.0913Z" fill="white"/>
<defs>
<linearGradient id="paint0_linear_248_2485" x1="32" y1="64" x2="32" y2="0" gradientUnits="userSpaceOnUse">
<stop stop-color="#382A5F" stop-opacity="0"/>
<stop offset="1" stop-color="#382A5F"/>
</linearGradient>
</defs>
</svg>
