<svg width="64" height="64" viewBox="0 0 64 64" fill="none" xmlns="http://www.w3.org/2000/svg">
<rect width="64" height="64" rx="12" fill="url(#paint0_linear_176_5848)"/>
<path d="M40.3892 46.1661H23.62C21.5597 46.1661 19.8906 44.5476 19.8906 42.5499C19.8906 40.5521 21.5597 38.9337 23.62 38.9337H40.3892C42.4495 38.9337 44.1186 40.5521 44.1186 42.5499C44.1186 44.5476 42.4495 46.1661 40.3892 46.1661Z" fill="white"/>
<path d="M44.5883 39.1121C43.3104 39.1121 42.0586 38.4546 41.3545 37.3166L32.9829 23.2563C31.9658 21.5367 32.5656 19.3114 34.339 18.3251C36.1124 17.3389 38.4075 17.9205 39.4246 19.6401L47.7961 33.7004C48.8133 35.42 48.2134 37.6453 46.44 38.6316C45.8402 38.9603 45.2142 39.1121 44.5883 39.1121Z" fill="white"/>
<path d="M19.421 39.1109C18.7951 39.1109 18.1431 38.9591 17.5694 38.6304C15.796 37.6441 15.1701 35.4188 16.2132 33.6992L24.5848 19.6389C25.6019 17.9193 27.8969 17.3124 29.6703 18.3239C31.4438 19.3102 32.0697 21.5355 31.0265 23.2551L22.6549 37.3154C21.9768 38.4534 20.725 39.1109 19.421 39.1109Z" fill="white"/>
<defs>
<linearGradient id="paint0_linear_176_5848" x1="32" y1="64" x2="32" y2="0" gradientUnits="userSpaceOnUse">
<stop stop-color="#382A5F" stop-opacity="0"/>
<stop offset="1" stop-color="#382A5F"/>
</linearGradient>
</defs>
</svg>
