<svg width="64" height="64" viewBox="0 0 64 64" fill="none" xmlns="http://www.w3.org/2000/svg">
<rect width="64" height="64" rx="12" fill="url(#paint0_linear_176_5831)"/>
<path d="M35.3432 15.85H28.656C27.5199 15.85 26.6162 16.7544 26.6162 17.8914V24.584C26.6162 25.721 27.5199 26.6254 28.656 26.6254H35.3432C36.4793 26.6254 37.383 25.721 37.383 24.584V17.8914C37.383 16.7544 36.4535 15.85 35.3432 15.85Z" fill="white"/>
<path d="M28.656 48.15H35.3432C36.4793 48.15 37.383 47.2456 37.383 46.1086V39.416C37.383 38.279 36.4793 37.3746 35.3432 37.3746H28.656C27.5199 37.3746 26.6162 38.279 26.6162 39.416V46.1086C26.6162 47.2197 27.5457 48.15 28.656 48.15Z" fill="white"/>
<path d="M37.3828 28.6414V35.334C37.3828 36.471 38.2865 37.3754 39.4226 37.3754H46.1099C47.2459 37.3754 48.1496 36.471 48.1496 35.334V28.6414C48.1496 27.5044 47.2459 26.6 46.1099 26.6H39.4226C38.2865 26.6 37.3828 27.5302 37.3828 28.6414Z" fill="white"/>
<path d="M15.8496 28.6413V35.3339C15.8496 36.4709 16.7533 37.3753 17.8894 37.3753H24.5766C25.7127 37.3753 26.6164 36.4709 26.6164 35.3339V28.6413C26.6164 27.5043 25.7127 26.5999 24.5766 26.5999H17.8894C16.7791 26.5999 15.8496 27.5302 15.8496 28.6413Z" fill="white"/>
<defs>
<linearGradient id="paint0_linear_176_5831" x1="32" y1="64" x2="32" y2="0" gradientUnits="userSpaceOnUse">
<stop stop-color="#382A5F" stop-opacity="0"/>
<stop offset="1" stop-color="#382A5F"/>
</linearGradient>
</defs>
</svg>
