<svg width="115" height="28" viewBox="0 0 155 38" xmlns="http://www.w3.org/2000/svg" xmlns:xlink="http://www.w3.org/1999/xlink" class="_imgLogo_atav2_6"><g id="Molecules-/-Brand-/-Logo-/-Mark-&amp;-Type" stroke="none" stroke-width="1" fill="none" fill-rule="evenodd"><g id="Logo"><path d="M86.8,8.2 C89.1,8.2 91.9,9.2 93.5,11.5 L93.8,8.6 L98.6,8.6 L98.6,37.9 L93.5,38 L93.5,26.9 C92,29.2 88.8,29.8 86.6,29.8 C80,29.8 76.2,25 76.2,19 C76.2,12.9 80.4,8.2 86.8,8.2 Z M154.4,3.55271368e-15 L154.4,29.3 L149.6,29.3 L149.3,26.4 C147.7,28.9 145.1,29.7 142.6,29.7 C136.5,29.7 131.9,25.7 131.9,18.9 C131.9,11.8 136.4,8.1 142.4,8.1 C144.6,8.1 148,9.3 149.2,11.4 L149.2,3.55271368e-15 L154.4,3.55271368e-15 Z M106.2,8.6 L106.2,19.4 C106.2,22.5 107.9,24.9 111.2,24.9 C114.3,24.9 116.5,22.3 116.5,19.1 L116.5,8.6 L121.6,8.6 L121.6,29.3 L117,29.3 L116.7,26.5 C114.6,28.6 112.6,29.6 109.7,29.6 C104.8,29.6 101.1,25.9 101.1,19.4 L101.1,8.6 L106.2,8.6 Z M74.1,8.6 L74.1,29.4 L69,29.4 L69,8.6 L74.1,8.6 Z M129.5,8.6 L129.5,29.4 L124.4,29.4 L124.4,8.6 L129.5,8.6 Z M53.5,0 L53.5,22.2 C53.5,23.3 54.4,24.2 55.5,24.2 L66.7,24.2 L66.7,29.3 L53.4,29.3 C50.4,29.3 48,26.9 48,23.9 L48,0 L53.5,0 Z M137.1,19 C137.1,22.6 139.7,25.1 143,25.1 C146.2,25.1 149,22.8 149,19 C149,15.4818182 146.325826,13.1097107 143.217534,13.0037049 L143,13 C139.7,12.9 137.1,15.2 137.1,19 Z M87.1,13.1 C83.4,13.1 81.2,15.7 81.2,19 C81.2,22.3 83.6,24.9 87.1,24.9 C90.6,24.9 93,22.2 93,19 C93,15.8 90.8,13.1 87.1,13.1 Z M72.7,5.77315973e-15 C73.4,5.77315973e-15 74,0.6 74,1.3 L74,3.6 C74.1,4.4 73.5,5 72.7,5 L70.3,5 C69.6,5 69,4.4 69,3.7 L69,1.3 C69,0.6 69.6,5.77315973e-15 70.3,5.77315973e-15 L72.7,5.77315973e-15 Z M128.1,5.77315973e-15 C128.8,5.77315973e-15 129.4,0.6 129.4,1.3 L129.4,3.6 C129.5,4.4 128.9,5 128.1,5 L125.7,5 C125,5 124.4,4.4 124.4,3.7 L124.4,1.3 C124.4,0.6 125,5.77315973e-15 125.7,5.77315973e-15 L128.1,5.77315973e-15 Z" id="Logo-Type" fill="#FFFFFF"></path><path d="M8.61333333,11.2295515 C9.67733333,11.2295515 10.5566722,12.0517565 10.6344137,13.0857416 L10.64,13.2348285 L10.64,25.9683377 C10.64,27.1191924 11.4744197,27.9948427 12.6111653,28.0688106 L12.768,28.0738786 L25.536,28.0738786 C26.6,28.0738786 27.4793388,28.8960836 27.5570804,29.9300687 L27.5626667,30.0791557 L27.5626667,36.6965699 C27.5626667,37.3545515 27.0282917,37.9244105 26.3770221,37.9930726 L26.2453333,38 L1.31733333,38 C0.652333333,38 0.0763958333,37.4712648 0.00700130208,36.8268689 L0,36.6965699 L0,12.5329815 C0,11.875 0.534375,11.305141 1.18564453,11.2364789 L1.31733333,11.2295515 L8.61333333,11.2295515 Z M36.6826667,2.13162821e-14 C37.3476667,2.13162821e-14 37.9236042,0.528735158 37.9929987,1.17313113 L38,1.30343008 L38,25.8680739 C38,26.5260554 37.465625,27.0959144 36.8143555,27.1645765 L36.6826667,27.171504 L31.008,27.171504 C29.944,27.171504 29.0646612,26.3492989 28.9869196,25.3153138 L28.9813333,25.1662269 L28.9813333,21.1556728 C28.9813333,20.1029024 28.1503581,19.2328442 27.1053439,19.1559231 L26.9546667,19.1503958 L20.7733333,19.1503958 C19.7093333,19.1503958 18.8299945,18.3281908 18.7522529,17.2942057 L18.7466667,17.1451187 L18.7466667,10.9287599 C18.7466667,9.87598945 17.9156915,9.00593122 16.8706772,8.92901017 L16.72,8.92348285 L12.6666667,8.92348285 C11.6026667,8.92348285 10.7233278,8.10127783 10.6455863,7.06729273 L10.64,6.9182058 L10.64,1.30343008 C10.64,0.645448549 11.174375,0.0755895449 11.8256445,0.00692740971 L11.9573333,2.13162821e-14 L36.6826667,2.13162821e-14 Z" id="Logo-Mark" fill="#0055FF"></path></g></g></svg>