<svg width="24" height="24" viewBox="0 0 24 24" fill="none" xmlns="http://www.w3.org/2000/svg">
<g clip-path="url(#clip0_170_4676)">
<g filter="url(#filter0_d_170_4676)">
<path fill-rule="evenodd" clip-rule="evenodd" d="M12.2 21C9.5 21 5 14.1762 5 10.2C5 6.2238 8.2238 3 12.2 3C16.1762 3 19.4 6.2238 19.4 10.2C19.4 14.1762 14.9 21 12.2 21ZM12.2 19.2C12.6707 19.2 14.0594 17.9841 15.3131 16.0959C16.6928 14.0178 17.6 11.6733 17.6 10.2C17.6 7.2174 15.1826 4.8 12.2 4.8C9.2174 4.8 6.8 7.2174 6.8 10.2C6.8 11.6733 7.7072 14.0169 9.0869 16.0959C10.3406 17.9841 11.7293 19.2 12.2 19.2ZM12.2 12C13.1945 12 14 11.1945 14 10.2C14 9.2055 13.1945 8.4 12.2 8.4C11.2055 8.4 10.4 9.2055 10.4 10.2C10.4 11.1945 11.2055 12 12.2 12Z" fill="white"/>
<path d="M8.92026 16.2065L8.92028 16.2065C9.55447 17.1617 10.2243 17.9492 10.7986 18.5003C11.0854 18.7756 11.3517 18.995 11.5806 19.1471C11.695 19.2231 11.8035 19.2846 11.9032 19.3277C12.0002 19.3696 12.1023 19.4 12.2 19.4C12.2977 19.4 12.3998 19.3696 12.4968 19.3277C12.5965 19.2846 12.705 19.2231 12.8194 19.1471C13.0483 18.995 13.3146 18.7756 13.6014 18.5003C14.1757 17.9492 14.8455 17.1617 15.4797 16.2065L15.3131 16.0959L15.4797 16.2065C16.1771 15.1561 16.7557 14.0376 17.1604 12.9934C17.5639 11.9525 17.8 10.9717 17.8 10.2C17.8 7.10694 15.2931 4.6 12.2 4.6C9.10694 4.6 6.6 7.10694 6.6 10.2C6.6 10.9717 6.8361 11.9523 7.23958 12.9931C7.64433 14.0372 8.22287 15.1556 8.92026 16.2065ZM12.2 20.8C11.6005 20.8 10.8602 20.4151 10.0677 19.7212C9.28304 19.0341 8.4786 18.0717 7.75412 16.9805C6.30016 14.7903 5.2 12.1302 5.2 10.2C5.2 6.33426 8.33426 3.2 12.2 3.2C16.0657 3.2 19.2 6.33426 19.2 10.2C19.2 12.1302 18.0998 14.7903 16.6459 16.9805C15.9214 18.0717 15.117 19.0341 14.3323 19.7212C13.5398 20.4151 12.7995 20.8 12.2 20.8ZM13.8 10.2C13.8 11.084 13.084 11.8 12.2 11.8C11.316 11.8 10.6 11.084 10.6 10.2C10.6 9.31596 11.316 8.6 12.2 8.6C13.084 8.6 13.8 9.31596 13.8 10.2Z" stroke="#1B1333" stroke-width="0.4"/>
</g>
</g>
<defs>
<filter id="filter0_d_170_4676" x="-270.862" y="-259.069" width="566.125" height="569.724" filterUnits="userSpaceOnUse" color-interpolation-filters="sRGB">
<feFlood flood-opacity="0" result="BackgroundImageFix"/>
<feColorMatrix in="SourceAlpha" type="matrix" values="0 0 0 0 0 0 0 0 0 0 0 0 0 0 0 0 0 0 127 0" result="hardAlpha"/>
<feOffset dy="13.7931"/>
<feGaussianBlur stdDeviation="137.931"/>
<feColorMatrix type="matrix" values="0 0 0 0 0 0 0 0 0 0 0 0 0 0 0 0 0 0 0.1 0"/>
<feBlend mode="normal" in2="BackgroundImageFix" result="effect1_dropShadow_170_4676"/>
<feBlend mode="normal" in="SourceGraphic" in2="effect1_dropShadow_170_4676" result="shape"/>
</filter>
<clipPath id="clip0_170_4676">
<rect width="24" height="24" fill="white"/>
</clipPath>
</defs>
</svg>
