<svg width="349" height="67" viewBox="0 0 349 67" fill="none" xmlns="http://www.w3.org/2000/svg">
<path d="M12.8418 10.3343C12.8699 10.5191 12.8176 10.9048 12.7815 11.1781C12.7815 11.1861 12.7815 11.1941 12.7734 11.2062C12.456 12.737 11.1622 14.3603 10.5274 15.0796L4.29141 21.3155C2.11767 23.4893 0.707342 26.326 0.257324 29.3636C0.301522 29.002 0.345721 28.6484 0.405991 28.2988C0.434117 28.114 0.458225 27.9292 0.494387 27.7443C0.538585 27.4711 0.59082 27.2059 0.643054 26.9448C2.15785 19.2302 6.33257 12.4678 12.1788 7.63818H12.1868C12.2391 7.74265 12.2913 7.83908 12.3355 7.94757C12.6449 8.67885 12.7654 9.49049 12.8377 10.3343H12.8418Z" fill="url(#paint0_linear_2581_1840)"/>
<path d="M16.9721 60.7523C16.4256 60.2059 15.9073 59.6152 15.4211 59.0005H15.4292C15.9154 59.6152 16.4256 60.1979 16.9721 60.7523Z" fill="url(#paint1_linear_2581_1840)"/>
<path d="M16.9721 60.7523C16.4256 60.2059 15.9073 59.6152 15.4211 59.0005H15.4292C15.9154 59.6152 16.4256 60.1979 16.9721 60.7523Z" fill="url(#paint2_linear_2581_1840)"/>
<path d="M61.0779 36.15L60.1538 37.0741L52.4754 44.7445L50.8802 46.3397L49.8958 47.3361C49.0681 48.3648 48.5739 49.6706 48.5739 51.0809C48.5739 51.2738 48.5819 51.4586 48.602 51.6435C48.61 51.768 48.6181 51.8725 48.6542 51.985C48.6542 52.0975 48.6703 52.206 48.6984 52.3105C48.7426 52.4872 48.7788 52.652 48.831 52.8207C48.8471 52.873 48.8672 52.9252 48.8913 52.9895C48.9797 53.2627 49.0841 53.5359 49.2248 53.781C49.277 53.9136 49.3493 54.0462 49.4377 54.1668C49.6065 54.4681 49.8154 54.7494 50.0364 55.0025C50.1529 55.1432 50.2654 55.2677 50.398 55.3883C51.4186 56.3928 52.8008 57.0276 54.3277 57.0879C54.4161 57.0959 54.5045 57.0959 54.6009 57.0959C56.2201 57.0959 57.6827 56.4611 58.7676 55.4244C57.7269 56.6218 56.6019 57.7388 55.4045 58.7875C55.3683 58.8237 55.3322 58.8478 55.3 58.8759C54.8942 59.2295 54.4723 59.571 54.0424 59.9045C53.6125 60.238 53.1785 60.5635 52.7285 60.8729C52.4472 61.0738 52.166 61.2586 51.8847 61.4354C51.7159 61.5599 51.5392 61.6724 51.3664 61.7769C51.3383 61.805 51.3222 61.8131 51.2941 61.8211C50.8521 62.1024 50.4141 62.3675 49.9561 62.6207C49.4819 62.8939 48.9957 63.1511 48.5015 63.3962C48.4935 63.4042 48.4855 63.4122 48.4734 63.4122C48.4573 63.4203 48.4292 63.4404 48.4131 63.4484C48.2564 63.5207 48.1037 63.5971 47.9551 63.6694C47.8586 63.7136 47.7542 63.7658 47.6537 63.81C47.6095 63.8381 47.5653 63.8542 47.5131 63.8703C47.3001 63.9667 47.0992 64.0551 46.8863 64.1435C46.8421 64.1716 46.7899 64.1877 46.7457 64.2038C46.7015 64.2199 46.6492 64.24 46.597 64.2641C45.8738 64.5292 45.1103 64.7301 44.3228 64.8708C43.5473 65.0114 42.7357 65.0837 41.92 65.0837C41.683 65.0837 41.4459 65.0837 41.2169 65.0677C40.9798 65.0596 40.7508 65.0516 40.5298 65.0235H40.5217C38.8302 64.8467 37.235 64.3725 35.7925 63.6332C35.3184 63.3881 34.8483 63.1149 34.4023 62.8136C34.2175 62.689 34.0327 62.5564 33.8559 62.4359C33.7072 62.3234 33.5666 62.2149 33.434 62.1104C33.2933 62.0059 33.1607 61.8894 33.0362 61.7769C32.8795 61.6443 32.7268 61.5037 32.5781 61.3711C32.4897 61.2907 32.4013 61.2144 32.321 61.126C31.9754 60.7925 31.65 60.4389 31.3607 60.0612C31.204 59.8683 31.0432 59.6634 30.8946 59.4625C30.7098 59.2054 30.533 58.9522 30.3763 58.687C30.2798 58.5464 30.1995 58.4058 30.1191 58.2652C29.9423 57.9759 29.7936 57.6946 29.661 57.3932C29.5566 57.2084 29.4843 57.0236 29.4039 56.8307C29.3758 56.8026 29.3758 56.7946 29.3677 56.7785C29.2874 56.5856 29.211 56.3807 29.1307 56.1878C29.1307 56.1798 29.1226 56.1718 29.1226 56.1597C29.0624 55.9468 28.982 55.7539 28.9217 55.5329C28.7007 54.8458 28.536 54.1427 28.4356 53.4034C28.4195 53.2788 28.4074 53.1743 28.3914 53.0618C28.3632 52.877 28.3472 52.6922 28.3391 52.5073C28.311 52.1658 28.2949 51.8203 28.2949 51.4787C28.2949 51.2417 28.311 51.0046 28.323 50.7836C28.3311 50.5988 28.3391 50.422 28.3592 50.2572C28.3672 50.1247 28.3753 49.984 28.4034 49.8434C28.4114 49.7309 28.4315 49.6144 28.4476 49.4898C28.4637 49.3411 28.4918 49.2085 28.5199 49.0679C28.5481 48.8831 28.5923 48.7063 28.6244 48.5295C28.6606 48.3728 28.6927 48.2201 28.7369 48.0714C28.7731 47.9147 28.8173 47.7621 28.8615 47.6054C29.1066 46.7616 29.436 45.958 29.8378 45.2026C29.8539 45.1664 29.874 45.1303 29.8901 45.1061C29.9423 45.0017 29.9945 44.8932 30.0468 44.8048C30.0628 44.7686 30.091 44.7325 30.107 44.7003C30.4928 44.0293 30.9267 43.4065 31.4209 42.8159L31.4732 42.7436L44.0857 30.131C44.2424 29.9823 44.4032 29.8216 44.5518 29.6649C44.8612 29.3475 45.1505 29.0381 45.4237 28.7046C48.5337 25.0683 50.4101 20.3753 50.4101 15.2201C50.4101 10.4749 48.8149 6.09522 46.1309 2.59151C46.1148 2.57544 46.1028 2.55535 46.0787 2.53927L46.1389 2.479C46.4041 2.58347 46.6653 2.69999 46.9225 2.8125C47.0189 2.84866 47.1153 2.89286 47.2117 2.93706C47.2479 2.94509 47.2841 2.96518 47.3082 2.98126C47.3443 2.98929 47.3805 3.00938 47.4046 3.02545C47.501 3.06965 47.5975 3.11385 47.6859 3.16608C47.8868 3.25448 48.0837 3.34288 48.2765 3.43931C48.3368 3.46744 48.4011 3.49958 48.4614 3.53574C48.9355 3.77281 49.4056 4.02192 49.8636 4.27506C49.9078 4.30318 49.952 4.32729 49.9962 4.35542C50.1128 4.41569 50.2253 4.47998 50.3297 4.54025C50.5668 4.68088 50.7958 4.81347 51.0248 4.96214C51.0329 4.96214 51.0329 4.97017 51.0409 4.97017C51.1374 5.02241 51.2338 5.08268 51.3302 5.14697C51.6195 5.3318 51.9128 5.52466 52.2021 5.70949C52.2383 5.73762 52.2745 5.75369 52.2986 5.78181C52.624 6.0028 52.9414 6.2238 53.2508 6.45282C53.8776 6.91088 54.4924 7.39706 55.0911 7.89529C55.3643 8.13235 55.6375 8.36942 55.9108 8.61853C56.192 8.86363 56.4652 9.12882 56.7385 9.38598C57.0117 9.65116 57.2769 9.91635 57.5381 10.1856C58.0564 10.732 58.5667 11.2865 59.0528 11.8691C59.539 12.4397 60.0051 13.0424 60.4551 13.6491C60.4551 13.6571 60.4632 13.6571 60.4632 13.6652C61.9699 15.7103 63.2477 17.9363 64.2602 20.2949C66.5746 25.7031 65.2205 31.9833 61.0819 36.146L61.0779 36.15Z" fill="url(#paint3_linear_2581_1840)"/>
<path d="M41.9118 65.0959C43.5512 65.0959 45.1343 64.8066 46.5888 64.2762C42.5628 66.012 38.1349 66.9522 33.474 66.9522C33.1124 66.9522 32.7588 66.9442 32.3891 66.9362C31.7181 66.9201 31.0672 66.8839 30.4083 66.8116C28.7609 66.671 27.1577 66.3977 25.5907 66.02H25.5826C25.5826 66.02 25.5666 66.012 25.5545 66.012C22.2597 64.9834 19.3266 63.1512 16.968 60.7524C16.4215 60.1979 15.8872 59.5993 15.405 58.9805C15.405 58.9805 15.3206 58.868 15.2885 58.8238C12.6004 55.3201 11.0093 50.9404 11.0093 46.1871C11.0093 41.0441 12.8777 36.339 15.9836 32.7107L16.9801 31.7142L16.9961 31.6981L29.1145 19.5637C29.4038 19.2825 29.677 18.9811 29.9341 18.6757C31.9231 16.3172 33.1124 13.2595 33.1124 9.94058C33.1124 6.16364 31.5815 2.74431 29.0863 0.289297C30.5208 0.104468 31.9914 0 33.474 0C37.8938 0 42.1127 0.863874 45.9781 2.42286C46.0062 2.46706 46.0384 2.50323 46.0665 2.54742C46.0826 2.5635 46.0946 2.58359 46.1187 2.59966C48.8068 6.10337 50.3979 10.483 50.3979 15.2363C50.3979 20.3794 48.5215 25.0845 45.4115 28.7128C45.1383 29.0463 44.849 29.3637 44.5396 29.6811C44.391 29.8298 44.2302 29.9905 44.0735 30.1392L31.461 42.7517L31.4088 42.824C30.9145 43.4147 30.4846 44.0495 30.0949 44.7165C29.9984 44.8652 29.91 45.0339 29.8216 45.2188C29.4158 45.9782 29.0904 46.7697 28.8453 47.6135C28.8011 47.7702 28.7569 47.9309 28.7207 48.0876C28.6765 48.2283 28.6403 48.3769 28.6042 48.5377C28.568 48.7144 28.5238 48.8912 28.4997 49.0841C28.4716 49.2167 28.4475 49.3573 28.4274 49.506C28.4113 49.6185 28.3912 49.735 28.3832 49.8596C28.3551 49.9922 28.347 50.1328 28.339 50.2734C28.3229 50.4422 28.3109 50.615 28.3028 50.7918C28.2948 51.0208 28.2747 51.2498 28.2747 51.4869C28.2747 51.8284 28.2908 52.174 28.3189 52.5275C28.3269 52.7124 28.347 52.8892 28.3711 53.074C28.3872 53.1986 28.3993 53.303 28.4153 53.4155C28.5118 54.1548 28.6805 54.858 28.9015 55.5571C28.9618 55.7701 29.0421 55.971 29.1024 56.1719C29.1024 56.1799 29.1104 56.188 29.1104 56.2C29.1908 56.4009 29.2671 56.5978 29.3475 56.7907C29.3555 56.8188 29.3555 56.8268 29.3837 56.8429C29.464 57.0358 29.5404 57.2286 29.6408 57.4135C29.7734 57.7028 29.9221 57.9961 30.0989 58.2773C30.1792 58.426 30.2556 58.5586 30.356 58.6992C30.5127 58.9644 30.6895 59.2175 30.8744 59.4747C31.015 59.6876 31.1717 59.8805 31.3404 60.0814C31.6297 60.4511 31.9552 60.8047 32.3008 61.1382C32.3811 61.2265 32.4695 61.3069 32.5579 61.3833C32.7066 61.5239 32.8593 61.6565 33.016 61.7891C33.1405 61.9016 33.2731 62.0181 33.4137 62.1226C33.5463 62.227 33.687 62.3355 33.8356 62.448C34.0124 62.5726 34.1973 62.7052 34.3821 62.8257C36.1701 64.0311 38.2474 64.7986 40.5015 65.0356H40.5096C40.9596 65.0798 41.4257 65.0959 41.8998 65.0959H41.9118Z" fill="url(#paint4_linear_2581_1840)"/>
<path d="M33.1125 9.94045C33.1125 13.2593 31.9231 16.317 29.9342 18.6756C29.6771 18.985 29.4038 19.2823 29.1146 19.5636L16.9962 31.698L15.9837 32.7106C12.8737 36.3388 11.0094 41.0399 11.0094 46.187C11.0094 50.9443 12.6045 55.3199 15.2886 58.8236C15.3408 58.896 15.4372 59.0165 15.4372 59.0245C15.9234 59.6232 16.4337 60.2058 16.9681 60.7523C19.3106 63.131 22.2277 64.9632 25.4943 65.9918C10.8607 62.4117 0 49.2085 0 33.47C0 32.5619 0.0361621 31.6538 0.104468 30.7658C0.148667 30.2917 0.192865 29.8216 0.253135 29.3676C0.703153 26.3299 2.11348 23.4932 4.28722 21.3195L10.5232 15.0835C11.158 14.3603 12.4518 12.741 12.7693 11.2101C12.7773 11.2021 12.8496 10.6557 12.8416 10.3382C12.7693 9.49445 12.6487 8.68281 12.3393 7.95153C12.2951 7.84706 12.2429 7.75063 12.1907 7.64215C12.4117 7.46535 12.6326 7.28856 12.8617 7.11177C13.0827 6.93497 13.3117 6.75818 13.5407 6.59344C14.4649 5.95458 15.4292 5.25946 16.1645 4.8215C18.053 3.67636 19.8972 2.87678 20.5522 2.5915C21.1669 2.32631 21.8018 2.08121 22.4446 1.86022C23.7867 1.42627 24.9318 1.10885 25.4381 0.972237C26.318 0.759282 27.218 0.574453 28.1261 0.425787C28.4355 0.373553 29.0784 0.285156 29.0945 0.285156C31.5856 2.74418 33.1205 6.1595 33.1205 9.93643L33.1125 9.94045Z" fill="url(#paint5_linear_2581_1840)"/>
<path opacity="0.1" d="M45.8938 63.8541C48.0394 63.5286 50.0846 62.3996 51.953 61.3951C50.8521 62.1344 49.6908 62.8014 48.4895 63.4041C48.4613 63.4242 48.4292 63.4322 48.4011 63.4523C47.8988 63.6974 47.3885 63.9345 46.8782 64.1514C46.7898 64.1997 46.6894 64.2318 46.593 64.268C45.1384 64.7983 43.5513 65.0957 41.9079 65.0957C41.4338 65.0957 40.9717 65.0756 40.5217 65.0274H40.5097C38.2556 64.7903 36.1823 64.0229 34.3902 62.8255C34.2014 62.6969 34.0166 62.5683 33.8398 62.4438C33.6911 62.3353 33.5545 62.2268 33.4179 62.1183C33.2813 62.0098 33.1527 61.9013 33.0241 61.7848C32.8674 61.6563 32.7187 61.5196 32.5701 61.383C32.4817 61.3027 32.3933 61.2263 32.3129 61.1379C31.9674 60.8044 31.6459 60.4508 31.3486 60.0772C31.1919 59.8803 31.0352 59.6834 30.8865 59.4785C30.6977 59.2213 30.5209 58.9682 30.3642 58.703C30.2637 58.5664 30.1874 58.4258 30.107 58.2811C29.9302 57.9958 29.7816 57.7106 29.645 57.4132C29.5445 57.2244 29.4682 57.0396 29.3878 56.8427C29.3677 56.8226 29.3677 56.8145 29.3597 56.7944C29.2793 56.5976 29.203 56.4007 29.1226 56.2038C29.1226 56.1958 29.1106 56.1837 29.1106 56.1757C29.0423 55.9708 28.9619 55.7739 28.9056 55.5569C28.6887 54.8698 28.5199 54.1586 28.4235 53.4233C28.4034 53.3068 28.3954 53.1983 28.3753 53.0778C28.3552 52.8889 28.3351 52.7121 28.327 52.5273C28.2989 52.1818 28.2869 51.8402 28.2869 51.4947C28.2869 51.2576 28.2949 51.0206 28.307 50.7956C28.315 50.6188 28.327 50.442 28.3471 50.2732C28.3552 50.1366 28.3672 49.996 28.3873 49.8594C28.3954 49.7428 28.4154 49.6223 28.4355 49.5058C28.4556 49.3571 28.4757 49.2205 28.5038 49.0839C28.532 48.895 28.5721 48.7182 28.6123 48.5414C28.6404 48.3847 28.6806 48.2361 28.7208 48.0874C28.761 47.9307 28.8012 47.774 28.8494 47.6133C29.0945 46.7655 29.4199 45.9699 29.8217 45.2145C29.9101 45.0377 29.9985 44.869 30.099 44.7123C30.4847 44.0453 30.9146 43.4145 31.4089 42.8238L31.4691 42.7555L44.0817 30.1429C44.2384 29.9943 44.3951 29.8376 44.5438 29.6809C44.8491 29.3675 45.1424 29.05 45.4197 28.7165C48.5296 25.0843 50.398 20.3832 50.398 15.2361C50.398 10.4828 48.8029 6.10716 46.1188 2.60345C46.0987 2.58336 46.0907 2.56327 46.0706 2.54318L46.1309 2.48291C47.8426 3.18205 49.4859 4.01779 51.0409 4.98212C51.945 7.54159 52.7526 9.79168 52.7646 9.79168C54.1107 15.7062 53.0901 22.131 49.9801 27.3424C46.83 32.614 41.7834 36.2624 37.3555 40.5295C35.6519 42.1649 33.7433 43.6033 32.55 45.6404C31.3687 47.6776 30.4204 50.5263 30.7057 52.8689C31.216 57.1963 34.4826 62.2148 38.6413 63.5447C41.5945 64.4849 43.9571 64.1555 45.8938 63.8581V63.8541Z" fill="url(#paint6_linear_2581_1840)"/>
<path opacity="0.1" d="M36.066 9.93258C36.066 13.8301 34.6999 17.607 32.2288 20.5281C31.9355 20.9018 31.598 21.2674 31.2162 21.6491L18.1617 34.7157C15.4576 37.9141 13.3722 42.4504 13.3722 46.6492C13.3722 50.5547 15.1723 55.9188 17.5831 59.3984C19.6966 62.4601 22.7864 64.6218 26.5553 66.0201C27.6 66.2853 28.5443 66.5103 29.4081 66.6991C28.1184 66.5505 26.8487 66.3134 25.5991 66.0201H25.587C21.5248 64.7504 18.0572 62.3155 15.4696 59.0609C15.4335 59.0127 15.3692 58.9243 15.2848 58.8198C12.6008 55.3161 11.0056 50.9405 11.0056 46.1872C11.0056 41.0401 12.874 36.339 15.9839 32.7067L16.9764 31.7143L16.9965 31.6942L29.1188 19.5638C29.4041 19.2785 29.6814 18.9852 29.9345 18.6678C31.9234 16.3052 33.1127 13.2555 33.1127 9.93258C33.1127 6.15564 31.5779 2.74033 29.0867 0.281302C30.1595 0.14469 31.2404 0.0562935 32.3453 0.0161133C32.4739 0.16478 33.4663 1.41438 34.5391 2.96936C35.5436 5.12301 36.066 7.48561 36.066 9.9366V9.93258Z" fill="url(#paint7_linear_2581_1840)"/>
<path opacity="0.1" d="M14.1515 15.2925C12.9822 17.0965 11.4031 18.5953 9.82807 20.0578C8.40971 21.3958 4.48411 25.0884 3.5238 27.8447C0.996468 35.1013 2.74832 41.7069 3.70863 45.3633C4.6609 49.309 6.01497 52.0372 7.50566 54.5927C2.80859 48.8308 0 41.4779 0 33.47C0 32.5619 0.0361621 31.6538 0.104468 30.7658C0.148667 30.2917 0.192865 29.8216 0.253135 29.3676C0.650919 26.4103 2.11348 23.4932 4.28722 21.3195L10.5232 15.0835C11.158 14.3603 12.4518 12.741 12.7693 11.2102C12.8054 11.0253 12.8295 10.6275 12.8416 10.3382C12.7693 9.49446 12.6487 8.68282 12.3393 7.95154C12.2951 7.84707 12.2429 7.75064 12.1907 7.64215C12.4117 7.46536 12.6326 7.28857 12.8617 7.11177C13.0465 6.96311 13.2394 6.81042 13.4242 6.66979C13.4684 6.64167 13.5046 6.61756 13.5367 6.58943C13.5809 6.5613 13.6171 6.52916 13.6613 6.493C13.8742 6.34433 14.0832 6.19165 14.2961 6.04298C14.4287 5.94655 14.5693 5.85012 14.7019 5.76172C15.2202 6.76622 15.5819 7.6984 15.7868 9.19712C16.06 11.3186 15.3287 13.4964 14.1555 15.2925H14.1515Z" fill="url(#paint8_linear_2581_1840)"/>
<path d="M66.96 33.4703V33.4864C66.96 33.9806 66.952 34.4628 66.9239 34.949C66.9078 35.3709 66.8797 35.7847 66.8435 36.1986C66.8355 36.3995 66.8154 36.6044 66.7913 36.8133C66.7631 37.1227 66.731 37.4281 66.6868 37.7294C66.6587 37.9585 66.6346 38.1875 66.5984 38.4085L66.5462 38.75C66.51 38.971 66.4738 39.1799 66.4417 39.3929C66.3613 39.8148 66.285 40.2367 66.1845 40.6626C66.1243 40.972 66.052 41.2773 65.9636 41.5787C65.9475 41.6671 65.9274 41.7555 65.9033 41.8358C65.8511 42.0488 65.7988 42.2577 65.7345 42.4707C65.6984 42.6113 65.6542 42.76 65.61 42.9006C65.5577 43.0774 65.5055 43.2542 65.4533 43.427C65.3207 43.8569 65.172 44.2909 65.0233 44.7208C64.8666 45.1628 64.6979 45.5927 64.5211 46.0226C64.3523 46.4365 64.1796 46.8423 64.0028 47.2481C64.0028 47.2642 63.9947 47.2843 63.9746 47.3003C62.8215 49.8277 61.3589 52.1983 59.6432 54.3439C59.6432 54.36 59.6352 54.3721 59.6151 54.3801C59.6071 54.3962 59.599 54.4163 59.5789 54.4323C59.3218 54.7498 59.0606 55.0672 58.7954 55.3846L58.7593 55.4208C57.6744 56.4614 56.2158 57.0923 54.5926 57.0923C54.4961 57.0923 54.4077 57.0923 54.3193 57.0842C54.1867 57.0762 54.0542 57.0681 53.9216 57.0481C53.9135 57.0481 53.9055 57.0481 53.8934 57.04C53.7367 57.032 53.568 57.0039 53.4193 56.9677C53.2505 56.9396 53.0858 56.8954 52.9251 56.8512C52.7563 56.807 52.5996 56.7547 52.451 56.6945C52.2943 56.6342 52.1416 56.5699 51.9929 56.5016C51.8442 56.4293 51.6956 56.3529 51.5509 56.2645C51.4103 56.1842 51.2697 56.0958 51.1371 55.9994C50.9964 55.9029 50.8719 55.8065 50.7393 55.698C50.6147 55.5935 50.4942 55.485 50.3777 55.3725C50.2531 55.26 50.1326 55.1274 50.0241 54.9868C49.9718 54.9346 49.9276 54.8703 49.8835 54.81C49.7067 54.6091 49.558 54.3881 49.4254 54.1591C49.345 54.0345 49.2767 53.902 49.2124 53.7734C49.2044 53.7734 49.2044 53.7653 49.2044 53.7653C49.0718 53.5202 48.9593 53.255 48.8709 52.9738C48.8548 52.9216 48.8347 52.8613 48.8187 52.805C48.7664 52.6483 48.7303 52.4796 48.6861 52.2947C48.67 52.1903 48.6499 52.0818 48.6419 51.9773C48.6057 51.8528 48.5977 51.7483 48.5896 51.6237C48.5736 51.4389 48.5615 51.2541 48.5615 51.0692C48.5615 50.7157 48.5897 50.3661 48.6499 50.0286C48.666 49.904 48.6941 49.7835 48.7303 49.6589C48.8187 49.2893 48.9513 48.9276 49.0999 48.5941C49.0999 48.5941 49.0999 48.5915 49.0999 48.5861C49.3129 48.1281 49.5741 47.7142 49.8835 47.3285L50.8679 46.332L52.463 44.7369L60.1414 37.0665L61.0656 36.1423C64.9671 32.2127 66.3935 26.4107 64.5974 21.2234C64.5532 21.0667 64.493 20.906 64.4287 20.7573C64.501 20.898 64.5613 21.0466 64.6135 21.1993C65.8711 24.3534 66.6466 27.7527 66.8676 31.2926C66.8837 31.4412 66.8957 31.602 66.9038 31.7506C66.9319 32.3131 66.948 32.8877 66.948 33.4663L66.96 33.4703Z" fill="url(#paint9_linear_2581_1840)"/>
<path opacity="0.1" d="M66.8795 31.2965C66.3853 34.0971 64.7661 37.2432 61.0052 40.3772C60.0208 41.2049 59.1127 42.0407 58.1685 42.9126C56.1796 44.7167 51.5388 48.4253 51.1932 48.7588C49.803 50.0968 49.9677 52.8451 50.5584 54.0505C50.8758 54.7095 51.599 56.5096 53.8973 57.044C53.7406 57.0359 53.5719 57.0078 53.4232 56.9716C53.2545 56.9435 53.0897 56.8993 52.929 56.8551C52.7602 56.8109 52.6035 56.7587 52.4549 56.6984C52.2982 56.6381 52.1455 56.5738 51.9968 56.5055C51.8481 56.4332 51.6995 56.3569 51.5548 56.2685C51.4142 56.1881 51.2736 56.0997 51.141 56.0033C51.0003 55.9069 50.8758 55.8104 50.7432 55.7019C50.6186 55.5975 50.4981 55.489 50.3816 55.3765C50.257 55.264 50.1365 55.1314 50.028 54.9907C49.9758 54.9385 49.9316 54.8742 49.8874 54.814C49.7106 54.6131 49.5619 54.3921 49.4293 54.163C49.3489 54.0385 49.2806 53.9059 49.2163 53.7773C49.2083 53.7773 49.2083 53.7693 49.2083 53.7693C49.0757 53.5242 48.9632 53.259 48.8748 52.9777C48.8587 52.9255 48.8387 52.8652 48.8226 52.809C48.7703 52.6523 48.7342 52.4835 48.69 52.2987C48.6739 52.1942 48.6538 52.0857 48.6458 51.9812C48.6096 51.8567 48.6016 51.7522 48.5936 51.6277C48.5775 51.4428 48.5654 51.258 48.5654 51.0732C48.5654 50.7196 48.5936 50.37 48.6538 50.0325C48.6699 49.908 48.698 49.7874 48.7342 49.6629C48.8226 49.2932 48.9471 48.9316 49.1038 48.5981C49.1038 48.5981 49.1038 48.5954 49.1038 48.59C49.3168 48.132 49.578 47.7181 49.8874 47.3324L50.8718 46.3359L52.4669 44.7408L60.1454 37.0704L61.0695 36.1462C64.971 32.2166 66.3974 26.4146 64.6013 21.2273L64.6174 21.1992C65.875 24.3534 66.6505 27.7526 66.8715 31.2925L66.8795 31.2965Z" fill="url(#paint10_linear_2581_1840)"/>
<path d="M114.919 19.2141H114.562C111.456 19.2141 108.888 19.9413 106.859 21.3999C104.983 22.7499 103.576 24.6705 102.596 27.1215V6.67383H94.2104V60.1175H102.596V36.7005C102.596 33.7392 103.432 31.3485 105.103 29.5323C106.775 27.7162 108.973 26.8081 111.697 26.8081C114.228 26.8081 116.293 27.6077 117.897 29.2069C119.496 30.8101 120.295 32.9918 120.295 35.7643V60.1135H128.681V36.9817C128.681 31.248 127.52 26.8523 125.205 23.7986C122.887 20.7409 119.46 19.21 114.923 19.21L114.919 19.2141Z" fill="white"/>
<path d="M173.819 25.1968C172.003 23.3124 169.817 21.8177 167.262 20.7167C164.707 19.6198 161.781 19.0693 158.483 19.0693C155.184 19.0693 152.247 19.6198 149.667 20.7167C147.088 21.8177 144.902 23.3083 143.11 25.1968C141.318 27.0853 139.956 29.2229 139.027 31.6096C138.095 34.0003 137.629 36.4593 137.629 38.9907V40.4251C137.629 42.9564 138.083 45.4034 138.991 47.77C139.899 50.1366 141.237 52.2501 143.005 54.1105C144.773 55.9748 146.947 57.4695 149.527 58.5906C152.106 59.7116 155.091 60.2741 158.483 60.2741C161.874 60.2741 164.859 59.7116 167.439 58.5906C170.018 57.4695 172.192 55.9748 173.96 54.1105C175.728 52.2461 177.066 50.1326 177.974 47.77C178.882 45.4034 179.336 42.9564 179.336 40.4251V38.9907C179.336 36.4593 178.87 34.0003 177.938 31.6096C177.006 29.2188 175.632 27.0813 173.815 25.1968H173.819ZM169.484 46.4441C168.504 48.4531 167.085 50.0402 165.221 51.2095C163.357 52.3787 161.114 52.9653 158.487 52.9653C155.859 52.9653 153.613 52.3787 151.752 51.2095C149.888 50.0402 148.466 48.4491 147.489 46.4441C146.509 44.4391 146.019 42.193 146.019 39.7099C146.019 37.2268 146.521 34.9084 147.526 32.9034C148.526 30.8944 149.96 29.3072 151.825 28.138C153.689 26.9688 155.907 26.3821 158.487 26.3821C161.066 26.3821 163.288 26.9688 165.149 28.138C167.013 29.3072 168.447 30.8944 169.448 32.9034C170.452 34.9084 170.951 37.1785 170.951 39.7099C170.951 42.2412 170.46 44.4391 169.48 46.4441H169.484Z" fill="white"/>
<path d="M211.223 21.3636C208.643 20.3591 205.393 19.8608 201.475 19.8608C200.234 19.8608 198.932 19.8849 197.57 19.9332C196.208 19.9814 194.894 20.0417 193.628 20.11C192.362 20.1823 191.201 20.2667 190.152 20.3631V27.5995C191.346 27.5031 192.72 27.4187 194.271 27.3464C195.822 27.2741 197.413 27.2178 199.036 27.1656C200.66 27.1214 202.142 27.0933 203.48 27.0933C205.915 27.0933 207.755 27.7161 208.997 28.9576C210.238 30.1992 210.861 32.0153 210.861 34.402V35.1213H202.046C198.655 35.1213 195.741 35.5753 193.303 36.4834C190.868 37.3914 188.991 38.7536 187.677 40.5657C186.363 42.3818 185.708 44.6761 185.708 47.4445C185.708 50.2129 186.279 52.3304 187.428 54.2149C188.573 56.1034 190.201 57.5338 192.302 58.5142C194.403 59.4946 196.863 59.9848 199.683 59.9848C202.504 59.9848 204.71 59.4946 206.598 58.5142C208.483 57.5378 209.965 56.1275 211.042 54.2872C211.524 53.4595 211.91 52.5313 212.223 51.5268V60.1133H218.885V34.832C218.885 31.2037 218.25 28.2987 216.985 26.1249C215.719 23.9512 213.794 22.3641 211.215 21.3596L211.223 21.3636ZM206.064 52.8568C204.726 53.4073 203.315 53.6805 201.837 53.6805C199.301 53.6805 197.369 53.0979 196.031 51.9246C194.693 50.7554 194.026 49.1924 194.026 47.2316C194.026 45.2708 194.693 43.6837 196.031 42.4662C197.369 41.2487 199.301 40.638 201.837 40.638H210.865V44.652C210.769 46.9945 210.279 48.8066 209.395 50.0964C208.511 51.3862 207.402 52.3063 206.064 52.8568Z" fill="white"/>
<path d="M256.478 39.6697C253.923 37.733 250.471 36.5276 246.124 36.0495L242.327 35.6919C240.177 35.4548 238.626 34.9526 237.67 34.1891C236.713 33.4257 236.235 32.373 236.235 31.035C236.235 29.5564 236.87 28.3389 238.136 27.3826C239.401 26.4263 241.23 25.9482 243.616 25.9482C246.148 25.9482 248.06 26.4504 249.35 27.4549C250.64 28.4554 251.331 29.701 251.427 31.1796H259.094C258.997 27.2621 257.543 24.2887 254.722 22.2556C251.902 20.2265 248.201 19.21 243.616 19.21C240.655 19.21 238.039 19.6881 235.769 20.6444C233.499 21.6007 231.719 22.9628 230.429 24.7267C229.139 26.4946 228.493 28.6684 228.493 31.2479C228.493 34.4985 229.65 37.0781 231.968 38.9866C234.282 40.8952 237.425 42.0685 241.39 42.4984L245.187 42.856C247.863 43.1413 249.76 43.7038 250.885 44.5395C252.006 45.3753 252.568 46.5124 252.568 47.9428C252.568 49.5179 251.805 50.8318 250.274 51.8845C248.747 52.9372 246.642 53.4595 243.97 53.4595C240.816 53.4595 238.546 52.8649 237.159 51.6675C235.773 50.4701 235.034 49.1603 234.937 47.7258H227.199C227.343 51.5952 228.858 54.6288 231.747 56.8266C234.64 59.0245 238.686 60.1214 243.894 60.1214C247.144 60.1214 249.997 59.6071 252.456 58.5785C254.915 57.5539 256.836 56.1074 258.226 54.2431C259.612 52.3787 260.303 50.2049 260.303 47.7218C260.303 44.2824 259.025 41.5943 256.47 39.6617L256.478 39.6697Z" fill="white"/>
<path d="M296.28 21.7936C293.508 19.9774 290.044 19.0693 285.89 19.0693C282.687 19.0693 279.883 19.6319 277.472 20.7529C275.061 21.8739 273.064 23.3807 271.489 25.2651C269.91 27.1536 268.729 29.2791 267.941 31.6417C267.154 34.0083 266.76 36.4553 266.76 38.9866V40.3488C266.76 42.8319 267.154 45.2548 267.941 47.6214C268.729 49.988 269.91 52.1135 271.489 53.998C273.064 55.8864 275.093 57.4012 277.581 58.5464C280.064 59.6915 282.977 60.2661 286.324 60.2661C289.43 60.2661 292.202 59.7397 294.637 58.691C297.072 57.6423 299.089 56.1355 300.692 54.1748C302.291 52.218 303.356 49.9237 303.882 47.2959H296.071C295.69 48.871 294.637 50.2451 292.917 51.4184C291.198 52.5876 289 53.1743 286.324 53.1743C283.648 53.1743 281.45 52.5876 279.73 51.4184C278.01 50.2491 276.745 48.646 275.933 46.6169C275.322 45.09 274.941 43.4065 274.792 41.5662H304.598V38.1991C304.598 34.8561 303.903 31.7381 302.52 28.8492C301.134 25.9602 299.057 23.6057 296.284 21.7895L296.28 21.7936ZM279.658 27.8849C281.329 26.7397 283.407 26.1652 285.894 26.1652C288.381 26.1652 290.265 26.6795 291.84 27.7041C293.416 28.7327 294.609 30.1872 295.421 32.0757C295.915 33.2208 296.24 34.5106 296.433 35.9088H275.017C275.218 34.7195 275.523 33.6226 275.933 32.6141C276.745 30.6051 277.986 29.03 279.658 27.8849Z" fill="white"/>
<path d="M344.577 23.7262C342.235 20.7167 338.679 19.21 333.897 19.21H333.54C330.434 19.21 327.83 19.889 325.729 21.2511C323.627 22.6132 322.06 24.6102 321.036 27.2339C320.738 27.9974 320.493 28.8251 320.284 29.689V20.3551H313.622V60.1094H322.004V36.1178C322.004 33.3011 322.84 31.043 324.511 29.3474C326.183 27.6518 328.38 26.804 331.105 26.804C333.829 26.804 335.882 27.6277 337.409 29.2751C338.936 30.9225 339.703 33.0842 339.703 35.7602V60.1094H348.089V36.9053C348.089 31.1274 346.916 26.7317 344.577 23.7222V23.7262Z" fill="white"/>
<defs>
<linearGradient id="paint0_linear_2581_1840" x1="14.2762" y1="4.81754" x2="-0.337342" y2="29.2149" gradientUnits="userSpaceOnUse">
<stop stop-color="#8976D2"/>
<stop offset="0.85" stop-color="#372281"/>
</linearGradient>
<linearGradient id="paint1_linear_2581_1840" x1="16.1966" y1="60.7523" x2="16.1966" y2="59.0005" gradientUnits="userSpaceOnUse">
<stop stop-color="#6932C3"/>
<stop offset="1" stop-color="#C7BBF9"/>
</linearGradient>
<linearGradient id="paint2_linear_2581_1840" x1="16.1966" y1="60.7523" x2="16.1966" y2="59.0005" gradientUnits="userSpaceOnUse">
<stop stop-color="#372281"/>
<stop offset="1" stop-color="#8976D2"/>
</linearGradient>
<linearGradient id="paint3_linear_2581_1840" x1="46.8341" y1="72.2921" x2="46.8341" y2="26.78" gradientUnits="userSpaceOnUse">
<stop offset="0.18" stop-color="#795ADB"/>
<stop offset="1" stop-color="#BBBBF7"/>
</linearGradient>
<linearGradient id="paint4_linear_2581_1840" x1="30.7056" y1="66.9522" x2="30.7056" y2="-0.00803417" gradientUnits="userSpaceOnUse">
<stop stop-color="#6932C3"/>
<stop offset="1" stop-color="#C7BBF9"/>
</linearGradient>
<linearGradient id="paint5_linear_2581_1840" x1="16.5582" y1="65.9958" x2="16.5582" y2="0.285156" gradientUnits="userSpaceOnUse">
<stop stop-color="#372281"/>
<stop offset="1" stop-color="#8976D2"/>
</linearGradient>
<linearGradient id="paint6_linear_2581_1840" x1="40.8191" y1="72.9348" x2="40.8191" y2="26.5549" gradientUnits="userSpaceOnUse">
<stop stop-color="white"/>
<stop offset="1" stop-color="white" stop-opacity="0"/>
</linearGradient>
<linearGradient id="paint7_linear_2581_1840" x1="23.5378" y1="66.6991" x2="23.5378" y2="0.0161133" gradientUnits="userSpaceOnUse">
<stop stop-color="white"/>
<stop offset="1" stop-color="white" stop-opacity="0"/>
</linearGradient>
<linearGradient id="paint8_linear_2581_1840" x1="19.4633" y1="7.99574" x2="-0.590646" y2="50.7957" gradientUnits="userSpaceOnUse">
<stop stop-color="white"/>
<stop offset="1" stop-color="white" stop-opacity="0"/>
</linearGradient>
<linearGradient id="paint9_linear_2581_1840" x1="48.5696" y1="38.9308" x2="66.96" y2="38.9308" gradientUnits="userSpaceOnUse">
<stop offset="0.11" stop-color="#9792FB"/>
<stop offset="0.59" stop-color="#B7BDF9"/>
</linearGradient>
<linearGradient id="paint10_linear_2581_1840" x1="57.7265" y1="57.048" x2="57.7265" y2="21.2032" gradientUnits="userSpaceOnUse">
<stop stop-color="white"/>
<stop offset="1" stop-color="white" stop-opacity="0"/>
</linearGradient>
</defs>
</svg>
