<svg width="108" height="24" viewBox="0 0 108 24" fill="none" xmlns="http://www.w3.org/2000/svg">
<path d="M35.5914 5.2832V19.6189H32.7795V10.322L28.7353 16.9785H28.4068L24.3626 10.3429V19.621H21.5298V5.28529H24.4442L28.57 12.0649L32.6749 5.28529H35.5914V5.2832Z" fill="white"/>
<path d="M44.5002 9.37891H47.1489V19.6193H44.5002V18.4734C43.8642 19.4356 42.8369 19.9073 41.4414 19.9073C40.3116 19.9073 39.389 19.5379 38.6504 18.7802C37.9328 18.0225 37.5625 16.9976 37.5625 15.668V9.38099H40.2112V15.3403C40.2112 16.7117 41.0125 17.4506 42.2427 17.4506C43.6173 17.4506 44.5002 16.6115 44.5002 14.9103V9.38099V9.37891Z" fill="white"/>
<path d="M54.9883 5.2832C56.9591 5.2832 58.6015 5.98037 59.9154 7.35174C61.2502 8.72311 61.9071 10.4243 61.9071 12.4511C61.9071 14.4778 61.2502 16.179 59.9154 17.5504C58.6015 18.9217 56.9591 19.6189 54.9883 19.6189H49.2808V5.2832H54.9883ZM54.9883 16.9137C56.2394 16.9137 57.2457 16.5046 58.0261 15.6843C58.8065 14.8452 59.1957 13.7807 59.1957 12.449C59.1957 11.1173 58.8065 10.0527 58.0261 9.2345C57.2457 8.3954 56.2394 7.98628 54.9883 7.98628H52.1136V16.9158H54.9883V16.9137Z" fill="white"/>
<path d="M63.0767 6.53112C63.0767 5.65028 63.8152 4.89258 64.6981 4.89258C65.581 4.89258 66.3405 5.65028 66.3405 6.53112C66.3405 7.41197 65.6019 8.1488 64.6981 8.1488C63.7943 8.1488 63.0767 7.41197 63.0767 6.53112ZM63.3842 19.6186V9.37823H66.0329V19.6186H63.3842Z" fill="white"/>
<path d="M75.9038 9.37985H78.4897V19.1276C78.4897 20.7036 77.9562 21.9121 76.9101 22.7533C75.864 23.5924 74.6108 24.0015 73.1337 24.0015C70.916 24.0015 69.1711 23.1415 68.2694 21.503L70.5268 20.213C71.0394 21.1753 71.9433 21.647 73.2153 21.647C74.8786 21.647 75.9038 20.7453 75.9038 19.1276V18.0213C75.1234 19.065 74.0355 19.5785 72.619 19.5785C71.2026 19.5785 69.9515 19.0671 68.9661 18.0631C68.0016 17.0382 67.5078 15.79 67.5078 14.3351C67.5078 12.8803 68.0016 11.6529 68.9849 10.6281C69.9703 9.60319 71.1817 9.0918 72.619 9.0918C74.0564 9.0918 75.1234 9.60319 75.9038 10.6489V9.37985ZM75.0836 12.3501C74.5501 11.8178 73.8723 11.5507 73.0312 11.5507C72.1901 11.5507 71.5123 11.8178 70.9578 12.3501C70.4243 12.8615 70.1565 13.5378 70.1565 14.3372C70.1565 15.9758 71.3679 17.1426 73.0312 17.1426C74.6945 17.1426 75.9059 15.9758 75.9059 14.3372C75.9059 13.5378 75.6381 12.8636 75.0857 12.3501H75.0836Z" fill="white"/>
<path d="M80.1738 6.53112C80.1738 5.65028 80.9124 4.89258 81.7953 4.89258C82.6782 4.89258 83.4377 5.65028 83.4377 6.53112C83.4377 7.41197 82.6991 8.1488 81.7953 8.1488C80.8915 8.1488 80.1738 7.41197 80.1738 6.53112ZM80.4814 19.6186V9.37823H83.1301V19.6186H80.4814Z" fill="white"/>
<path d="M91.0114 11.918H88.6912V16.1782C88.6912 17.2845 89.4925 17.3054 91.0114 17.2219V19.6181C87.3773 20.0272 86.0445 18.9836 86.0445 16.1782V11.918H84.2578V9.37774H86.0445V7.30921L88.6933 6.50977V9.37774H91.0135V11.918H91.0114Z" fill="white"/>
<path d="M99.9618 9.37985H102.61V19.6202H99.9618V18.4117C99.1605 19.4157 98.0537 19.9062 96.6163 19.9062C95.179 19.9062 94.0701 19.3948 93.0847 18.3491C92.1202 17.3054 91.6265 16.0154 91.6265 14.498C91.6265 12.9805 92.1202 11.7135 93.0847 10.6677C94.0701 9.62406 95.2397 9.0918 96.6163 9.0918C97.993 9.0918 99.1625 9.58232 99.9618 10.5863V9.37776V9.37985ZM97.108 17.3868C97.9281 17.3868 98.606 17.1196 99.1395 16.5874C99.673 16.0551 99.9597 15.3371 99.9597 14.498C99.9597 13.6589 99.6919 12.9617 99.1395 12.4294C98.606 11.8763 97.9281 11.6112 97.108 11.6112C96.2879 11.6112 95.61 11.8784 95.0765 12.4294C94.543 12.9617 94.2752 13.6589 94.2752 14.498C94.2752 15.3371 94.543 16.0342 95.0765 16.5874C95.61 17.1196 96.2879 17.3868 97.108 17.3868Z" fill="white"/>
<path d="M104.601 19.6193V4.66992H107.249V19.6193H104.601Z" fill="white"/>
<path d="M12.7552 14.0143H15.1362L17.3246 8.60184L12.6255 6.94034L10.366 6.06992H10.368C8.91607 5.44164 7.05192 4.48774 6.90547 3.66324C6.6021 0.937206 11.7363 0 11.7363 0C11.7363 0 4.3258 0.281788 4.96182 4.36041C5.20242 5.88207 7.51639 6.88815 9.94124 7.81701C12.5377 8.81057 15.0127 9.69351 15.0127 9.69351L13.9415 12.5824L8.49135 12.5615C8.49135 12.5615 4.85303 12.4008 4.91161 9.18838C3.14998 12.6617 5.987 14.0163 8.53738 14.0163C10.2362 14.0163 10.5773 13.9955 10.5773 13.9955C11.025 16.2665 11.6903 18.2473 12.4958 19.9798C11.1798 20.4349 9.80734 20.7208 8.49135 20.7041C5.65852 20.6665 2.6353 19.0927 1.80052 16.2581C1.04942 13.2941 1.87584 10.1172 3.67722 7.51435C2.05786 8.64568 0.890416 10.4115 0.346445 12.3632C-0.048979 13.7638 -0.118021 15.2646 0.202084 16.6902C1.04105 20.366 4.84675 22.6245 8.4516 22.6412C10.0584 22.6537 11.8619 22.3844 13.4645 21.8542C14.1047 21.6434 14.7156 21.3867 15.2721 21.0924C14.9102 20.462 14.5943 19.8358 14.3202 19.2367C13.2657 16.9198 12.8159 14.9097 12.7552 14.0184V14.0143Z" fill="white"/>
<path d="M14.3367 4.42205C12.8052 5.71827 11.2402 5.65148 11.2402 5.65148C13.8241 8.25228 17.8014 4.19036 14.0375 2.62695C14.5041 2.89204 15.2028 3.75619 14.3367 4.42205Z" fill="white"/>
</svg>
