<svg width="40" height="40" viewBox="0 0 40 40" fill="none" xmlns="http://www.w3.org/2000/svg">
<g clip-path="url(#clip0_170_4698)">
<circle cx="20" cy="20" r="20" fill="#735FD4"/>
<path d="M27.5526 10.9971C27.3006 11.0088 27.0633 11.0821 26.8524 11.1641H26.8494C26.6356 11.2491 25.619 11.6768 24.075 12.3243C22.5311 12.9747 20.5272 13.8184 18.5379 14.6563C14.5653 16.3291 10.66 17.9756 10.66 17.9756L10.7069 17.9581C10.7069 17.9581 10.4373 18.0459 10.1561 18.2393C10.0125 18.3331 9.85432 18.462 9.71663 18.6641C9.57893 18.8663 9.4676 19.1768 9.50862 19.4961C9.576 20.0381 9.92756 20.3633 10.1795 20.542C10.4344 20.7237 10.6776 20.8086 10.6776 20.8086H10.6834L14.3455 22.042C14.5096 22.5694 15.4617 25.6983 15.6903 26.419C15.825 26.8497 15.9569 27.1192 16.1209 27.3243C16.2 27.4297 16.2938 27.5176 16.4051 27.5879C16.449 27.6143 16.4959 27.6348 16.5428 27.6524C16.5574 27.6612 16.5721 27.6641 16.5897 27.667L16.5516 27.6582C16.5633 27.6612 16.5721 27.67 16.5809 27.6729C16.6102 27.6817 16.6307 27.6846 16.6688 27.6905C17.2489 27.8663 17.7147 27.5059 17.7147 27.5059L17.741 27.4854L19.9031 25.5166L23.5272 28.2969L23.6092 28.3321C24.3651 28.6631 25.1297 28.4786 25.534 28.1534C25.9412 27.8252 26.0994 27.4063 26.0994 27.4063L26.1258 27.3389L28.9266 12.9922C29.0057 12.6377 29.0262 12.3067 28.9383 11.9844C28.8504 11.6622 28.6248 11.3604 28.3524 11.1993C28.077 11.0352 27.8045 10.9854 27.5526 10.9971ZM27.4764 12.5352C27.4735 12.5821 27.4823 12.5762 27.4617 12.667V12.6758L24.6873 26.8731C24.6756 26.8936 24.6551 26.9375 24.5994 26.9815C24.5408 27.0284 24.494 27.0577 24.2508 26.961L19.8182 23.5625L17.1405 26.003L17.703 22.4112C17.703 22.4112 24.6463 15.9395 24.9451 15.6612C25.244 15.3829 25.1444 15.3243 25.1444 15.3243C25.1649 14.9844 24.6932 15.2247 24.6932 15.2247L15.5614 20.8819L15.5584 20.8672L11.1815 19.3936V19.3907C11.1785 19.3907 11.1727 19.3877 11.1698 19.3877C11.1727 19.3877 11.1932 19.379 11.1932 19.379L11.2166 19.3672L11.2401 19.3584C11.2401 19.3584 15.1483 17.712 19.1209 16.0391C21.1102 15.2012 23.1141 14.3575 24.6551 13.7071C26.1961 13.0596 27.3358 12.585 27.4002 12.5586C27.4617 12.5352 27.4324 12.5352 27.4764 12.5352Z" fill="white"/>
</g>
<defs>
<clipPath id="clip0_170_4698">
<rect width="40" height="40" fill="white"/>
</clipPath>
</defs>
</svg>
