<svg xmlns="http://www.w3.org/2000/svg" width="24" height="24" viewBox="0 0 24 24" fill="none">
  <path d="M12 22C17.5228 22 22 17.5228 22 12C22 6.47715 17.5228 2 12 2C6.47715 2 2 6.47715 2 12C2 17.5228 6.47715 22 12 22Z" fill="#F0F0F0"/>
  <path d="M15.4782 12C15.4782 12.8695 13.9209 15.0434 12 15.0434C10.079 15.0434 8.52173 12.8695 8.52173 12C8.52173 10.079 10.079 8.52173 12 8.52173C13.9209 8.52173 15.4782 10.079 15.4782 12Z" fill="#D80027"/>
  <path d="M15.4782 12C15.4782 13.921 13.9209 15.4782 12 15.4782C10.079 15.4782 8.52173 13.921 8.52173 12" fill="#0052B4"/>
  <path d="M15.6865 15.0745L16.6087 14.1524L17.2235 14.7671L16.3013 15.6893L15.6865 15.0745Z" fill="black"/>
  <path d="M14.1492 16.6115L15.0713 15.6893L15.6861 16.3041L14.764 17.2263L14.1492 16.6115Z" fill="black"/>
  <path d="M17.531 16.9188L18.4532 15.9966L19.068 16.6114L18.1458 17.5335L17.531 16.9188Z" fill="black"/>
  <path d="M15.9937 18.4561L16.9158 17.5339L17.5306 18.1487L16.6084 19.0708L15.9937 18.4561Z" fill="black"/>
  <path d="M16.6086 15.9967L17.5308 15.0745L18.1456 15.6893L17.2234 16.6115L16.6086 15.9967Z" fill="black"/>
  <path d="M15.0718 17.5337L15.9939 16.6115L16.6087 17.2263L15.6866 18.1485L15.0718 17.5337Z" fill="black"/>
  <path d="M17.5352 8.92712L15.076 6.46801L15.6908 5.85322L18.1499 8.31234L17.5352 8.92712Z" fill="black"/>
  <path d="M15.0754 8.31262L14.1533 7.39046L14.768 6.7757L15.6902 7.69786L15.0754 8.31262Z" fill="black"/>
  <path d="M16.6123 9.84991L15.6901 8.92775L16.3049 8.31299L17.2271 9.23516L16.6123 9.84991Z" fill="black"/>
  <path d="M16.9197 6.46796L15.9975 5.54579L16.6123 4.93101L17.5345 5.85317L16.9197 6.46796Z" fill="black"/>
  <path d="M18.4575 8.00549L17.5354 7.08333L18.1501 6.46854L19.0723 7.39071L18.4575 8.00549Z" fill="black"/>
  <path d="M5.54517 15.995L8.00428 18.4541L7.3895 19.0689L4.93038 16.6098L5.54517 15.995Z" fill="black"/>
  <path d="M8.00415 16.6093L8.92632 17.5314L8.31156 18.1462L7.38939 17.224L8.00415 16.6093Z" fill="black"/>
  <path d="M6.46704 15.0726L7.38921 15.9948L6.77442 16.6096L5.85226 15.6874L6.46704 15.0726Z" fill="black"/>
  <path d="M7.38916 14.1502L9.84828 16.6093L9.23349 17.2241L6.77437 14.765L7.38916 14.1502Z" fill="black"/>
  <path d="M8.00391 5.54388L5.54479 8.003L4.93 7.38822L7.38912 4.9291L8.00391 5.54388Z" fill="black"/>
  <path d="M8.92603 6.46594L6.46691 8.92506L5.85212 8.31027L8.31124 5.85116L8.92603 6.46594Z" fill="black"/>
  <path d="M9.84912 7.38867L7.39 9.84779L6.77525 9.23303L9.23436 6.77391L9.84912 7.38867Z" fill="black"/>
</svg>