<svg preserveAspectRatio="none" width="100%" height="100%" overflow="visible" style="display: block;" viewBox="0 0 42.3956 51.7836" fill="none" xmlns="http://www.w3.org/2000/svg">
<g id="Group 1261153210">
<path id="Vector" d="M32.3112 0V4.52661H16.3916C11.0465 4.52661 4.74821 10.4817 4.74821 16.3119C4.74821 22.142 5.5767 23.3384 8.66796 26.9097C11.7592 30.481 23.3937 32.0256 24.1064 32.2666C24.8191 32.5077 25.7723 32.8648 25.7723 34.8826C25.7723 36.4986 24.5073 36.8289 23.8748 36.7843H15.3226L11.2871 40.8288H24.828C29.4872 40.8288 30.3335 36.4629 30.1731 34.2844C30.1731 23.2134 9.26483 31.7845 9.26483 16.7851C9.26483 10.9728 14.3338 9.28536 16.8638 9.16929H37.291L32.3023 14.1691V20.2403L42.3956 10.1246L32.3112 0Z" fill="var(--fill-0, white)"/>
<path id="Vector_2" d="M31.5985 11.3027L27.4382 15.4722H20.0709C17.6923 15.4722 17.1845 16.9007 17.2202 17.615C17.2202 20.8292 25.3002 21.5434 26.1287 21.7845C26.9572 22.0255 38.1285 22.9719 38.1285 35.1143C38.1285 44.8282 30.6809 47.4978 26.9661 47.6138H9.86173V51.7833L0 41.8998L9.97754 31.9002V38.5695L5.34511 43.2122H25.416C26.2445 43.2122 33.7277 43.4533 33.7277 35.1143C33.7277 26.7754 25.8882 25.4718 20.7836 24.6415C15.679 23.8112 12.8283 21.6684 12.8283 16.9007C12.8283 13.0884 16.552 11.5795 18.4139 11.3027H31.5985Z" fill="var(--fill-0, white)"/>
</g>
</svg>
