<svg preserveAspectRatio="none" width="100%" height="100%" overflow="visible" style="display: block;" viewBox="0 0 99.3178 37.8022" fill="none" xmlns="http://www.w3.org/2000/svg">
<g id="Group 1261153212">
<path id="Vector" d="M90.1102 6.32992C92.0108 6.32992 93.6369 6.79555 94.9991 7.71622C96.3823 8.6369 97.4382 9.95971 98.1774 11.6741C98.9376 13.3884 99.3178 15.4414 99.3178 17.8331C99.3178 21.5581 98.473 24.4366 96.7941 26.4472C95.1364 28.4367 92.9084 29.4315 90.1102 29.4315C87.6921 29.4315 85.7809 28.4367 84.366 26.4472C82.9511 24.4577 82.2437 21.5899 82.2437 17.8331C82.2437 15.4626 82.571 13.4202 83.2256 11.7058C83.8803 9.95971 84.7884 8.62632 85.9499 7.70564C87.1431 6.78496 88.5263 6.31934 90.0997 6.31934L90.1102 6.32992ZM89.1704 10.6582C87.6183 10.6582 86.4251 11.2719 85.5909 12.4995C84.7778 13.7271 84.366 15.5049 84.366 17.8437C84.366 20.1824 84.7884 21.9814 85.6331 23.2302C86.4779 24.4789 87.6499 25.1033 89.181 25.1033C90.7121 25.1033 91.9369 24.4789 92.7289 23.2302C93.5419 21.9814 93.9537 20.1824 93.9537 17.8437C93.9537 15.5049 93.5419 13.7588 92.7289 12.5418C91.9158 11.2931 90.7332 10.6687 89.181 10.6687L89.1704 10.6582ZM84.366 37.8022H79.1498V6.9437H84.366V37.8022Z" fill="var(--fill-0, white)"/>
<path id="Vector_2" d="M62.1712 14.1284H56.9128C57.1556 12.4987 57.6836 11.1124 58.4967 9.96948C59.3414 8.79482 60.4395 7.90589 61.7911 7.27094C63.1743 6.64658 64.7899 6.3291 66.6377 6.3291C68.644 6.3291 70.3334 6.69949 71.685 7.42968C73.0683 8.15987 74.103 9.18637 74.7788 10.488C75.4546 11.7897 75.7925 13.2924 75.7925 14.975V23.4621C75.7925 24.7955 75.8453 25.8855 75.9509 26.7321C76.0882 27.547 76.2466 28.2454 76.4366 28.8169H71.0198C70.8086 28.2772 70.6713 27.5893 70.608 26.7745C70.5552 25.9279 70.5235 25.0919 70.5235 24.2453V14.975C70.5235 13.5569 70.175 12.4881 69.4676 11.7473C68.7918 11.0171 67.7253 10.6468 66.2893 10.6468C65.0433 10.6468 64.0719 10.9748 63.3961 11.6309C62.7203 12.2553 62.2979 13.0913 62.129 14.1178L62.1712 14.1284ZM71.2521 15.5147V18.7424C69.2458 18.7424 67.5986 18.8482 66.321 19.0704C65.0433 19.2609 64.0507 19.5466 63.3433 19.9276C62.6358 20.3086 62.129 20.7424 61.8333 21.2292C61.5588 21.716 61.4321 22.2452 61.4321 22.8166C61.4321 23.6632 61.7383 24.3299 62.3718 24.8167C62.9948 25.3035 63.829 25.5469 64.8532 25.5469C65.8775 25.5469 66.8806 25.2929 67.7464 24.7744C68.6123 24.2558 69.2986 23.5468 69.7843 22.6473C70.3017 21.7478 70.5552 20.753 70.5552 19.663H72.5509C72.4453 21.4091 72.0968 22.9013 71.5372 24.15C70.9986 25.3776 70.2912 26.3829 69.4148 27.166C68.5701 27.928 67.6408 28.4888 66.6061 28.8381C65.5713 29.219 64.5365 29.4095 63.5122 29.4095C62.0762 29.4095 60.7985 29.1767 59.6793 28.7111C58.5917 28.2243 57.7364 27.5152 57.1134 26.584C56.4904 25.6316 56.1736 24.4569 56.1736 23.0706C56.1736 21.5785 56.5855 20.298 57.3985 19.2292C58.2432 18.1392 59.4998 17.3137 61.1892 16.7423C62.7097 16.2026 64.2619 15.8533 65.8352 15.7263C67.4402 15.5676 69.2458 15.483 71.2521 15.483V15.5147Z" fill="var(--fill-0, white)"/>
<path id="Vector_3" d="M44.042 28.8173L40.0929 14.1606L39.565 10.8906H39.8078L39.1954 14.1606L35.2885 28.8173H28.8158L22.7443 6.93274H28.3301L31.8357 22.362L32.4904 25.6637H32.2053L32.9761 22.362L37.1681 6.93274H42.5849L46.7769 22.362L47.4632 25.6637H47.1781L47.7905 22.362L51.3384 6.93274H56.6708L50.557 28.8173H44.042Z" fill="var(--fill-0, white)"/>
<path id="Vector_4" d="M6.1243 7.60881C6.1243 8.45541 6.3566 9.13269 6.8212 9.65123C7.30692 10.138 7.95103 10.5402 8.7324 10.8365C9.51378 11.1116 10.4008 11.355 11.3828 11.5667C12.3648 11.7571 13.3679 11.9582 14.3921 12.1804C15.448 12.3709 16.4722 12.6461 17.4437 12.9953C18.4257 13.3445 19.3021 13.8207 20.094 14.4239C20.9071 14.9954 21.5512 15.7573 22.0052 16.7097C22.4698 17.6304 22.7021 18.8051 22.7021 20.2231C22.7021 22.0751 22.227 23.6624 21.2767 24.9958C20.3475 26.2975 19.0803 27.2922 17.4437 27.9801C15.807 28.668 13.9486 28.996 11.8579 28.996C9.76721 28.996 7.856 28.668 6.19822 28.0118C4.57211 27.3557 3.20999 26.361 2.1224 25.0276C1.06648 23.6942 0.35901 22.0222 0 20.0115H5.74417C6.09262 21.4825 6.78952 22.6148 7.82432 23.3979C8.88023 24.1916 10.2424 24.5831 11.9001 24.5831C13.5579 24.5831 14.8989 24.2551 15.7648 23.599C16.6306 22.9217 17.0741 22.0222 17.0741 20.9004C17.0741 20.0009 16.8418 19.2813 16.3772 18.7416C15.9126 18.2019 15.2896 17.7786 14.5082 17.4717C13.7163 17.1436 12.8399 16.8685 11.8579 16.6568C10.8759 16.4346 9.86224 16.223 8.80633 16.0007C7.77153 15.7573 6.75786 15.4716 5.75474 15.1435C4.77274 14.7943 3.89632 14.3287 3.10439 13.7572C2.31245 13.1858 1.68947 12.4556 1.23543 11.5561C0.770831 10.6354 0.538526 9.47133 0.538526 8.08502C0.538526 6.61405 0.929208 5.27008 1.72114 4.04251C2.50252 2.81494 3.66402 1.84135 5.18454 1.10058C6.70505 0.370386 8.5529 0 10.7281 0C12.597 0 14.3288 0.317474 15.9021 0.941841C17.507 1.56621 18.8375 2.52921 19.8934 3.84144C20.981 5.14309 21.6568 6.84687 21.9313 8.9422H16.1027C15.7753 7.36541 15.1418 6.2225 14.1915 5.51348C13.2623 4.78328 12.0585 4.4129 10.5697 4.4129C9.18645 4.4129 8.09887 4.70921 7.30693 5.31241C6.52556 5.88386 6.1243 6.6458 6.1243 7.59823V7.60881Z" fill="var(--fill-0, white)"/>
</g>
</svg>
